<svg class="animated" id="freepik_stories-cloud-sync" xmlns="http://www.w3.org/2000/svg" viewBox="0 0 500 500" version="1.1" xmlns:xlink="http://www.w3.org/1999/xlink" xmlns:svgjs="http://svgjs.com/svgjs"><style>svg#freepik_stories-cloud-sync:not(.animated) .animable {opacity: 0;}svg#freepik_stories-cloud-sync.animated #freepik--Files--inject-118 {animation: 3s Infinite  linear floating;animation-delay: 0s;}            @keyframes floating {                0% {                    opacity: 1;                    transform: translateY(0px);                }                50% {                    transform: translateY(-10px);                }                100% {                    opacity: 1;                    transform: translateY(0px);                }            }        </style><g id="freepik--background-complete--inject-118" class="animable" style="transform-origin: 253.09px 226.995px;"><path d="M98.55,298.55l-13.13.28-6.66.11c-2.22.05-4.46,0-6.69.06h-.44v-.45l-.05-11.19v-.5h.5l13.24.07c4.41,0,8.83.11,13.24.16h.27v.27c0,1.9-.08,3.79-.13,5.66Zm0,0-.14-5.65c0-1.86-.12-3.71-.13-5.54l.27.27c-4.41.06-8.83.16-13.24.17l-13.24.06.5-.5-.06,11.19-.44-.44c2.18,0,4.36,0,6.54.05l6.58.11Z" style="fill: rgb(235, 235, 235); transform-origin: 85.205px 292.93px;" id="eldiav35jxg3m" class="animable"></path><path d="M83.78,312.66l-13.13.28-6.66.11c-2.22.05-4.46,0-6.69.06h-.45v-.45l-.05-11.19V301h.5l13.24.07c4.41,0,8.82.11,13.24.16h.27v.27c0,1.9-.09,3.79-.13,5.66Zm0,0L83.64,307c0-1.87-.12-3.71-.14-5.54l.28.27c-4.42.06-8.83.16-13.24.17L57.3,302l.5-.5-.06,11.19-.44-.44c2.18,0,4.35,0,6.54,0l6.58.11Z" style="fill: rgb(235, 235, 235); transform-origin: 70.425px 307.055px;" id="el27qmonlxthm" class="animable"></path><path d="M299.85,178.58l-13.13.28-6.66.11c-2.22,0-4.46,0-6.69.05h-.45v-.45l-.05-11.19v-.51h.51l13.24.06c4.41,0,8.82.11,13.24.16h.27v.27c0,1.9-.09,3.78-.13,5.65Zm0,0-.15-5.66c0-1.86-.11-3.7-.13-5.53l.28.27c-4.42.05-8.83.16-13.24.16l-13.24.07.5-.5-.06,11.19-.44-.45c2.18,0,4.35,0,6.54.06l6.58.11Z" style="fill: rgb(235, 235, 235); transform-origin: 286.5px 172.945px;" id="elaghir0tlupa" class="animable"></path><path d="M285.07,192.69,272,193l-6.66.12c-2.23,0-4.46,0-6.7,0h-.44v-.45l-.06-11.19V181h.5l13.24.06c4.42,0,8.83.11,13.24.16h.28v.27c0,1.9-.09,3.78-.13,5.65Zm0,0-.14-5.66c0-1.86-.11-3.7-.13-5.53l.27.27c-4.41,0-8.82.16-13.24.16l-13.24.07.5-.5,0,11.19-.45-.45c2.19,0,4.36,0,6.55.06l6.58.11Z" style="fill: rgb(235, 235, 235); transform-origin: 271.77px 187.06px;" id="elelsy7jprmpi" class="animable"></path><path d="M270.36,178.58l-13.12.28-6.66.11c-2.23,0-4.47,0-6.7.05h-.44v-.45l-.05-11.19v-.51h.5l13.24.06c4.41,0,8.83.11,13.24.16h.28v.27c0,1.9-.08,3.78-.13,5.65Zm0,0-.14-5.66c-.05-1.86-.11-3.7-.13-5.53l.27.27c-4.41.05-8.83.16-13.24.16l-13.24.07.5-.5,0,11.19-.45-.45c2.18,0,4.36,0,6.55.06l6.58.11Z" style="fill: rgb(235, 235, 235); transform-origin: 257.02px 172.945px;" id="el4yw03jven3" class="animable"></path><path d="M439.3,259.46l-13.12.28-6.66.11c-2.23,0-4.47,0-6.7,0h-.44v-.45l-.05-11.19v-.5h.5l13.24.06c4.41,0,8.83.11,13.24.16h.28v.27c0,1.9-.08,3.78-.13,5.65Zm0,0-.14-5.66c-.05-1.86-.11-3.7-.13-5.53l.27.27c-4.41.05-8.83.16-13.24.16l-13.24.07.5-.5-.05,11.19-.45-.45c2.18,0,4.36,0,6.55.06l6.58.11Z" style="fill: rgb(235, 235, 235); transform-origin: 425.96px 253.78px;" id="eltfotp19clee" class="animable"></path><path d="M451.54,274.44l-13.13.28-6.66.11c-2.23.05-4.46,0-6.69.05h-.45v-.45l-.05-11.19v-.5h.51l13.24.06c4.41,0,8.82.12,13.24.17h.27v.27c0,1.9-.09,3.79-.13,5.65Zm0,0-.15-5.65c0-1.87-.11-3.71-.13-5.54l.28.27c-4.42.05-8.83.16-13.24.17l-13.24.06.49-.5-.05,11.19-.44-.45c2.18,0,4.35,0,6.54.06l6.58.11Z" style="fill: rgb(235, 235, 235); transform-origin: 438.19px 268.81px;" id="elftsusp0azrj" class="animable"></path><path d="M443.89,58.27l-13.13.28-6.66.11c-2.22.05-4.46,0-6.69.05H417v-.45l0-11.19v-.5h.51l13.24.06c4.41,0,8.82.11,13.24.17h.27v.27c0,1.9-.09,3.79-.13,5.65Zm0,0-.14-5.65c-.05-1.87-.12-3.71-.14-5.54l.28.27c-4.42,0-8.83.16-13.24.17l-13.24.06.5-.5-.06,11.19-.44-.45c2.18,0,4.35,0,6.54.06l6.58.11Z" style="fill: rgb(235, 235, 235); transform-origin: 430.63px 52.64px;" id="elsebwng20t7" class="animable"></path><path d="M458.66,72.38l-13.13.28-6.66.11c-2.22,0-4.46,0-6.69,0h-.45v-.45l-.05-11.19v-.5h.5l13.24.06c4.41,0,8.83.11,13.24.17h.27v.27c0,1.9-.08,3.79-.13,5.65Zm0,0-.14-5.65c0-1.87-.12-3.71-.13-5.54l.27.27c-4.41,0-8.83.16-13.24.17l-13.24.06.5-.5-.06,11.19-.44-.45c2.18,0,4.36,0,6.54.06l6.58.11Z" style="fill: rgb(235, 235, 235); transform-origin: 445.305px 66.7px;" id="elbu48njg11q5" class="animable"></path><path d="M83.78,58.27l-13.13.28L64,58.66c-2.22.05-4.46,0-6.69.05h-.45v-.45L56.8,47.08v-.5h.5l13.24.06c4.41,0,8.82.11,13.24.17h.27v.27c0,1.9-.09,3.79-.13,5.65Zm0,0-.14-5.65c0-1.87-.12-3.71-.14-5.54l.28.27c-4.42,0-8.83.16-13.24.17l-13.24.06.5-.5-.06,11.19-.44-.45c2.18,0,4.35,0,6.54.06l6.58.11Z" style="fill: rgb(235, 235, 235); transform-origin: 70.425px 52.645px;" id="elez4zo1d93cc" class="animable"></path><polygon points="447.2 382.08 350.03 382.08 346.11 304.77 451.12 304.77 447.2 382.08" style="fill: rgb(235, 235, 235); transform-origin: 398.615px 343.425px;" id="elx7hg1dhv0pn" class="animable"></polygon><path d="M357.63,313.32h82l-1.48,26.84H359.35Zm81,.95h-80l1.6,24.94h77Z" style="fill: rgb(199, 199, 199); transform-origin: 398.63px 326.74px;" id="elme5ge771hr8" class="animable"></path><path d="M359.29,346.81h76.95L435,371H360.81Zm76,.95H360.3l1.4,22.32h72.43Z" style="fill: rgb(199, 199, 199); transform-origin: 397.765px 358.905px;" id="elg2v5jm9f25l" class="animable"></path><path d="M390.32,323.17h14.9l-.83,6.48H391.15Zm13.82.95H391.4l.59,4.57h11.56Z" style="fill: rgb(199, 199, 199); transform-origin: 397.77px 326.41px;" id="elvkagk3ofiu" class="animable"></path><path d="M390.32,355.68h14.9l-.83,6.48H391.15Zm13.82.95H391.4l.59,4.58h11.56Z" style="fill: rgb(199, 199, 199); transform-origin: 397.77px 358.92px;" id="elqcp2kh4qhg9" class="animable"></path><polygon points="430.31 382.08 431.49 390.5 433.87 407.42 438.52 407.42 438.52 382.08 430.31 382.08" style="fill: rgb(235, 235, 235); transform-origin: 434.415px 394.75px;" id="elkmw8o35v7zk" class="animable"></polygon><polygon points="430.31 382.08 431.49 390.5 438.52 390.5 438.52 382.08 430.31 382.08" style="fill: rgb(199, 199, 199); transform-origin: 434.415px 386.29px;" id="elixyusezi1x9" class="animable"></polygon><polygon points="366.92 382.08 365.74 390.5 363.36 407.42 358.71 407.42 358.71 382.08 366.92 382.08" style="fill: rgb(235, 235, 235); transform-origin: 362.815px 394.75px;" id="elgcadlccc5q" class="animable"></polygon><polygon points="366.92 382.08 365.74 390.5 358.71 390.5 358.71 382.08 366.92 382.08" style="fill: rgb(199, 199, 199); transform-origin: 362.815px 386.29px;" id="elr8ozcj99nz" class="animable"></polygon><rect x="47.25" y="57.83" width="131.43" height="179.37" style="fill: rgb(235, 235, 235); transform-origin: 112.965px 147.515px;" id="el0vjf8qh2upgn" class="animable"></rect><rect x="54.87" y="65.01" width="54.84" height="79.78" style="fill: rgb(255, 255, 255); transform-origin: 82.29px 104.9px;" id="ellel59ihpt0n" class="animable"></rect><rect x="116.21" y="65.01" width="54.84" height="79.78" style="fill: rgb(255, 255, 255); transform-origin: 143.63px 104.9px;" id="elgoho7oxwkwa" class="animable"></rect><rect x="54.87" y="150.23" width="54.84" height="79.78" style="fill: rgb(255, 255, 255); transform-origin: 82.29px 190.12px;" id="elq85jb9ujnu9" class="animable"></rect><rect x="116.21" y="150.23" width="54.84" height="79.78" style="fill: rgb(255, 255, 255); transform-origin: 143.63px 190.12px;" id="elo2lb7bcnlba" class="animable"></rect><polygon points="124.41 57.83 178.68 57.83 178.68 314.44 147.26 314.44 169.19 183.86 124.41 57.83" style="fill: rgb(219, 219, 219); transform-origin: 151.545px 186.135px;" id="elh7bdyet93u8" class="animable"></polygon><polygon points="133.81 64.76 142.88 94.47 151.86 124.2 169.67 183.72 169.7 183.82 169.68 183.93 161.3 246.17 157.02 277.28 152.64 308.37 156.53 277.21 160.53 246.07 168.7 183.8 168.71 184.01 151.13 124.42 142.42 94.61 133.81 64.76" style="fill: rgb(235, 235, 235); transform-origin: 151.755px 186.565px;" id="elsi7uvgu4p8c" class="animable"></polygon><polygon points="175.44 70.03 175.69 95.76 175.83 121.5 175.94 172.97 175.83 224.44 175.69 250.18 175.44 275.91 175.2 250.18 175.06 224.44 174.95 172.97 175.06 121.5 175.2 95.76 175.44 70.03" style="fill: rgb(235, 235, 235); transform-origin: 175.445px 172.97px;" id="elv5gtrl15tnc" class="animable"></polygon><polygon points="165.31 74.85 167.46 102.18 169.52 129.51 173.48 184.19 173.48 184.21 173.48 184.24 171.49 245.18 170.4 275.64 169.19 306.11 169.89 275.63 170.69 245.15 172.5 184.21 172.5 184.26 168.78 129.56 167 102.21 165.31 74.85" style="fill: rgb(235, 235, 235); transform-origin: 169.395px 190.48px;" id="elq0cptxlj84o" class="animable"></polygon><path d="M158.24,302.16l3-29.58L164.38,243c2.17-19.7,4.26-39.41,6.51-59.1v.15l-9.81-46-4.83-23L151.5,92l5.17,23,5.1,23,10.06,46V184c-2.12,19.7-4.41,39.39-6.61,59.08l-3.44,29.53Z" style="fill: rgb(235, 235, 235); transform-origin: 161.665px 197.08px;" id="el7h0x3s4v0cl" class="animable"></path><rect x="166.42" y="181.71" width="12.26" height="5.98" style="fill: rgb(219, 219, 219); transform-origin: 172.55px 184.7px;" id="eldwft3cag3z" class="animable"></rect><polygon points="101.64 57.83 47.38 57.83 47.38 314.44 78.79 314.44 56.86 183.86 101.64 57.83" style="fill: rgb(219, 219, 219); transform-origin: 74.51px 186.135px;" id="elzgyqws02g4a" class="animable"></polygon><polygon points="92.24 64.76 83.63 94.61 74.92 124.42 57.34 184.01 57.35 183.8 65.52 246.07 69.51 277.21 73.41 308.37 69.03 277.28 64.75 246.17 56.37 183.93 56.35 183.82 56.38 183.72 74.19 124.2 83.17 94.47 92.24 64.76" style="fill: rgb(235, 235, 235); transform-origin: 74.295px 186.565px;" id="elfj2azk1sq2" class="animable"></polygon><polygon points="50.6 70.03 50.85 95.76 50.99 121.5 51.1 172.97 50.99 224.44 50.85 250.18 50.6 275.91 50.36 250.18 50.22 224.44 50.1 172.97 50.22 121.5 50.36 95.76 50.6 70.03" style="fill: rgb(235, 235, 235); transform-origin: 50.6px 172.97px;" id="el4slvfybthl" class="animable"></polygon><polygon points="60.74 74.85 59.05 102.21 57.27 129.56 53.54 184.26 53.55 184.21 55.36 245.15 56.16 275.63 56.86 306.11 55.66 275.64 54.56 245.18 52.57 184.24 52.56 184.21 52.57 184.19 56.53 129.51 58.59 102.18 60.74 74.85" style="fill: rgb(235, 235, 235); transform-origin: 56.65px 190.48px;" id="elaptbr8alxcu" class="animable"></polygon><path d="M67.81,302.16l-3.54-29.52-3.44-29.53c-2.2-19.69-4.49-39.38-6.61-59.08v-.16l10.06-46,5.1-23,5.17-23L69.79,115,65,138l-9.81,46v-.15c2.25,19.69,4.33,39.4,6.51,59.1l3.12,29.56Z" style="fill: rgb(235, 235, 235); transform-origin: 64.385px 197.015px;" id="elo8nh4raagk" class="animable"></path><g id="elsk7csewhs6"><rect x="47.37" y="181.71" width="12.26" height="5.98" style="fill: rgb(219, 219, 219); transform-origin: 53.5px 184.7px; transform: rotate(180deg);" class="animable" id="elj89936eccor"></rect></g><polygon points="355.69 139.14 304.32 114.92 335.41 48.98 373.56 66.96 380.86 85.77 355.69 139.14" style="fill: rgb(235, 235, 235); transform-origin: 342.59px 94.06px;" id="elt087wrwdww" class="animable"></polygon><polygon points="373.56 66.96 380.86 85.77 367.63 79.53 373.56 66.96" style="fill: rgb(219, 219, 219); transform-origin: 374.245px 76.365px;" id="elcg79f7jguz" class="animable"></polygon><g id="el2kemz63p27q"><rect x="333.3" y="69.05" width="31.58" height="1.87" style="fill: rgb(219, 219, 219); transform-origin: 349.09px 69.985px; transform: rotate(-154.76deg);" class="animable" id="ely6x4gcctnu"></rect></g><g id="els9xy24mftr"><rect x="331.29" y="73.33" width="31.58" height="1.87" style="fill: rgb(219, 219, 219); transform-origin: 347.08px 74.265px; transform: rotate(-154.76deg);" class="animable" id="elz27x4i04pri"></rect></g><g id="ela2hnl2799ka"><rect x="329.27" y="77.6" width="31.58" height="1.87" style="fill: rgb(219, 219, 219); transform-origin: 345.06px 78.535px; transform: rotate(-154.76deg);" class="animable" id="elxkh8na12g5b"></rect></g><g id="elzpkt20mwb5"><rect x="326.55" y="85.01" width="46.27" height="1.87" style="fill: rgb(219, 219, 219); transform-origin: 349.685px 85.945px; transform: rotate(-154.76deg);" class="animable" id="elirrm3oqp8tg"></rect></g><g id="el9989354lun9"><rect x="324.54" y="89.28" width="46.27" height="1.87" style="fill: rgb(219, 219, 219); transform-origin: 347.675px 90.215px; transform: rotate(-154.76deg);" class="animable" id="el28rgxjufql"></rect></g><g id="el9hh0xugmqzv"><rect x="322.52" y="93.55" width="46.27" height="1.87" style="fill: rgb(219, 219, 219); transform-origin: 345.655px 94.485px; transform: rotate(-154.76deg);" class="animable" id="el4kk3o7kmz3f"></rect></g><g id="elf953kyzfpnk"><rect x="320.51" y="97.83" width="46.27" height="1.87" style="fill: rgb(219, 219, 219); transform-origin: 343.645px 98.765px; transform: rotate(-154.76deg);" class="animable" id="el4ebxob9rfhp"></rect></g><g id="elgt6eh3azlmf"><rect x="318.49" y="102.1" width="46.27" height="1.87" style="fill: rgb(219, 219, 219); transform-origin: 341.625px 103.035px; transform: rotate(-154.76deg);" class="animable" id="elfjp9zuvdar"></rect></g><g id="el7cg6l9lesx2"><rect x="316.48" y="106.37" width="46.27" height="1.87" style="fill: rgb(219, 219, 219); transform-origin: 339.615px 107.305px; transform: rotate(-154.76deg);" class="animable" id="elq9f33rvqjn"></rect></g><g id="eln3di0ww1is9"><rect x="314.46" y="110.65" width="46.27" height="1.87" style="fill: rgb(219, 219, 219); transform-origin: 337.595px 111.585px; transform: rotate(-154.76deg);" class="animable" id="elb3f5d5xxad"></rect></g><g id="elke0ibvs3nmh"><rect x="312.45" y="114.92" width="46.27" height="1.87" style="fill: rgb(219, 219, 219); transform-origin: 335.585px 115.855px; transform: rotate(-154.76deg);" class="animable" id="el8yvtq7aze0q"></rect></g><g id="elqcfg230k94m"><rect x="310.43" y="119.2" width="46.27" height="1.87" style="fill: rgb(219, 219, 219); transform-origin: 333.565px 120.135px; transform: rotate(-154.76deg);" class="animable" id="ele1wj3wh2sou"></rect></g><polygon points="216.92 173.63 160.2 170.75 163.89 97.94 206 100.07 219.91 114.69 216.92 173.63" style="fill: rgb(235, 235, 235); transform-origin: 190.055px 135.785px;" id="elizauc3ozk0n" class="animable"></polygon><polygon points="206 100.07 219.91 114.69 205.3 113.95 206 100.07" style="fill: rgb(219, 219, 219); transform-origin: 212.605px 107.38px;" id="eltp9od7lchr" class="animable"></polygon><g id="elcdtja1ves06"><rect x="168.74" y="111.23" width="31.58" height="1.87" style="fill: rgb(219, 219, 219); transform-origin: 184.53px 112.165px; transform: rotate(-177.1deg);" class="animable" id="el4fhfdicwa9l"></rect></g><g id="el11tseihfat3"><rect x="168.5" y="115.95" width="31.58" height="1.87" style="fill: rgb(219, 219, 219); transform-origin: 184.29px 116.885px; transform: rotate(-177.1deg);" class="animable" id="eli12ydmzulma"></rect></g><g id="elwnegnt0z7v9"><rect x="168.26" y="120.67" width="31.58" height="1.87" style="fill: rgb(219, 219, 219); transform-origin: 184.05px 121.605px; transform: rotate(-177.1deg);" class="animable" id="el32d6u0oshsj"></rect></g><g id="el4ght6rjzzik"><rect x="168.01" y="125.76" width="46.27" height="1.87" style="fill: rgb(219, 219, 219); transform-origin: 191.145px 126.695px; transform: rotate(-177.1deg);" class="animable" id="elkzgnojqcq7t"></rect></g><g id="elbcia9ao3twd"><rect x="167.77" y="130.48" width="46.27" height="1.87" style="fill: rgb(219, 219, 219); transform-origin: 190.905px 131.415px; transform: rotate(-177.1deg);" class="animable" id="el5v20u7gltk"></rect></g><g id="elqhvbhlqk6h"><rect x="167.53" y="135.2" width="46.27" height="1.87" style="fill: rgb(219, 219, 219); transform-origin: 190.665px 136.135px; transform: rotate(-177.1deg);" class="animable" id="el02921ebmm7yx"></rect></g><g id="elm5v9yewrek"><rect x="167.29" y="139.92" width="46.27" height="1.87" style="fill: rgb(219, 219, 219); transform-origin: 190.425px 140.855px; transform: rotate(-177.1deg);" class="animable" id="elqw3n0odu7s"></rect></g><g id="el2uw8g3d3rll"><rect x="167.05" y="144.64" width="46.27" height="1.87" style="fill: rgb(219, 219, 219); transform-origin: 190.185px 145.575px; transform: rotate(-177.1deg);" class="animable" id="el6opz6krt8ar"></rect></g><g id="el4wpsufsh7ih"><rect x="166.81" y="149.36" width="46.27" height="1.87" style="fill: rgb(219, 219, 219); transform-origin: 189.945px 150.295px; transform: rotate(-177.1deg);" class="animable" id="el7lwbp05t0a4"></rect></g><g id="elc7ivqo0o9z4"><rect x="166.57" y="154.08" width="46.27" height="1.87" style="fill: rgb(219, 219, 219); transform-origin: 189.705px 155.015px; transform: rotate(-177.1deg);" class="animable" id="elxhtssav9ggb"></rect></g><g id="elrpyxp7bq6og"><rect x="166.33" y="158.8" width="46.27" height="1.87" style="fill: rgb(219, 219, 219); transform-origin: 189.465px 159.735px; transform: rotate(-177.1deg);" class="animable" id="elzacrc919qyi"></rect></g><g id="elmvf0nfftxw"><rect x="166.09" y="163.51" width="46.27" height="1.87" style="fill: rgb(219, 219, 219); transform-origin: 189.225px 164.445px; transform: rotate(-177.1deg);" class="animable" id="eltuej1buf5gs"></rect></g></g><g id="freepik--Shadows--inject-118" class="animable" style="transform-origin: 266.595px 436.245px;"><ellipse cx="249.79" cy="426.45" rx="163.03" ry="18.2" style="fill: rgb(235, 235, 235); transform-origin: 249.79px 426.45px;" id="elpx2s2w2l6wn" class="animable"></ellipse><ellipse cx="351.23" cy="450.51" rx="95.2" ry="13.73" style="fill: rgb(235, 235, 235); transform-origin: 351.23px 450.51px;" id="el2mxpz7kiz2p" class="animable"></ellipse></g><g id="freepik--Floor--inject-118" class="animable" style="transform-origin: 249.995px 407.7px;"><polygon points="40.8 407.7 93.1 407.46 145.4 407.37 250 407.2 354.6 407.37 406.9 407.45 459.19 407.7 406.9 407.94 354.6 408.03 250 408.2 145.4 408.03 93.1 407.94 40.8 407.7" style="fill: rgb(38, 50, 56); transform-origin: 249.995px 407.7px;" id="elnhhka8cnb4" class="animable"></polygon></g><g id="freepik--Plant--inject-118" class="animable" style="transform-origin: 80.545px 312.225px;"><path d="M78,260.46s-20.67-2.89-15.84-27.84C62.2,232.62,85.29,237.81,78,260.46Z" style="fill: #16A34A; transform-origin: 70.4258px 246.54px;" id="elc2hj9z81bps" class="animable"></path><g id="el2d9wtqg2v7e"><path d="M78,260.46s-20.67-2.89-15.84-27.84C62.2,232.62,85.29,237.81,78,260.46Z" style="opacity: 0.1; transform-origin: 70.4258px 246.54px;" class="animable" id="el46nq9gfk3hv"></path></g><path d="M77,255.26a37.9,37.9,0,0,0-1.41-3.72c0-.16,0-.32,0-.47l-.09-1c0-.75-.1-1.49-.14-2.24-.09-1.49-.19-3-.21-4.47a.07.07,0,0,0-.13,0c0,1.49,0,3,0,4.48,0,.74.07,1.49.12,2.23l0,.5A44.06,44.06,0,0,0,71,243.45c-.71-1-1.46-1.94-2.26-2.86s-1.69-1.84-2.53-2.78c0-.06-.14,0-.09.1a36.84,36.84,0,0,1,4,5.29c.63,1,1.22,1.93,1.78,2.92L71.7,246l-.74-.29-1.68-.64L66,243.87c-.06,0-.11.09,0,.12,1.1.44,2.18.9,3.27,1.37l1.6.69.81.33a2.67,2.67,0,0,0,.54.19c.42.75.83,1.5,1.21,2.27a53.64,53.64,0,0,1,2.53,5.95l.15.43a13.13,13.13,0,0,0-1.69-.82l-2.14-1c-1.45-.67-2.89-1.34-4.28-2.13-.07,0-.13.07-.06.11,1.42.78,2.81,1.6,4.23,2.38.71.38,1.43.76,2.16,1.11a6.81,6.81,0,0,0,1.94.78,24.57,24.57,0,0,1,1.35,5.86c.23,2.82.21,5.67.27,8.49,0,.05.07.05.08,0,.2-2.56.32-5.15.33-7.73A22.55,22.55,0,0,0,77,255.26Z" style="fill: rgb(38, 50, 56); transform-origin: 72.1175px 253.912px;" id="ellubay8s2ul" class="animable"></path><path d="M73.81,240.58a25,25,0,0,0-.21,4.4c0,.05.06,0,.07,0,.08-1.46.09-2.91.26-4.36C73.94,240.54,73.82,240.5,73.81,240.58Z" style="fill: rgb(38, 50, 56); transform-origin: 73.755px 242.769px;" id="elz6puaazhucm" class="animable"></path><path d="M67.9,241.83a16,16,0,0,1-2.66-1.3c-.07-.05-.13.07-.06.11a10.07,10.07,0,0,0,2.69,1.28S68,241.85,67.9,241.83Z" style="fill: rgb(38, 50, 56); transform-origin: 66.5433px 241.219px;" id="elz70myg8ecf8" class="animable"></path><path d="M78.7,300.07c0-2.28-.06-4.56-.09-6.85q-.06-11.37-.24-22.75-.16-9-.42-18.06s0-.06-.06-.08c0-1.64,0-3.29,0-4.93,0,0-.05-.06-.1-.06s-.1,0-.1.06l0,4.94s0,0,0,.07c-.3,10.72-.57,21.44-.64,32.15,0,2.18,0,4.36,0,6.54q-.11,10.48-.08,21c0,1.11,0,2.22,0,3.33,0,6.4.06,12.79.07,19.18,0,.35.38.52.79.53s1-.16,1-.56c0-7.05,0-14.1,0-21.15C78.71,309,78.73,304.52,78.7,300.07Z" style="fill: rgb(38, 50, 56); transform-origin: 77.8968px 291.24px;" id="elkof41yzdeki" class="animable"></path><path d="M70.06,293.13s-9.94-7.36-19.37-2.38-10.91,24.16-10.91,24.16,13.85,2,22.57-6.33C70.76,300.58,70.06,293.13,70.06,293.13Z" style="fill: #16A34A; transform-origin: 54.9271px 302.071px;" id="eljewhds854k" class="animable"></path><path d="M72.77,293.59a11.82,11.82,0,0,0-5.75-.75,8.4,8.4,0,0,0-1.22-.12l-1.4-.11-2.9-.2c-2-.15-3.93-.27-5.89-.47-.07,0-.08.12,0,.13,1.94.25,3.86.52,5.81.72,1,.1,2,.2,3,.27l.72.07-.88.22a24.41,24.41,0,0,0-4.5,1.83c-.79.14-1.56.36-2.33.54-1.23.29-2.46.61-3.68.93-2.41.63-4.8,1.35-7.2,2a.06.06,0,0,0,0,.12c2.39-.58,4.8-1.12,7.2-1.69,1.16-.28,2.33-.55,3.49-.84l.92-.21a29.12,29.12,0,0,0-7.07,6.14A38.44,38.44,0,0,0,46.21,310c0,.07.07.14.11.06a37.9,37.9,0,0,1,5.94-7.79l-.13.39c-.18.59-.37,1.17-.55,1.76-.37,1.17-.74,2.34-1.09,3.51,0,.08.09.11.12,0,.42-1.13.82-2.27,1.22-3.41l.59-1.68.3-.87.09-.27a36,36,0,0,1,3.53-3,27.25,27.25,0,0,1,5.27-3c0,.17-.06.34-.1.51-.09.45-.2.9-.29,1.36-.19.94-.38,1.88-.56,2.83-.37,1.92-.61,3.87-1,5.79,0,.08.11.11.13,0,.44-1.93,1-3.84,1.45-5.77.21-1,.43-1.94.63-2.92.1-.45.19-.91.28-1.36,0-.25.11-.51.14-.76.18-.07.36-.16.54-.22A15.68,15.68,0,0,1,71.13,294a8.12,8.12,0,0,1,6,4.8c.09.21.43.08.38-.14A7.67,7.67,0,0,0,72.77,293.59Z" style="fill: rgb(38, 50, 56); transform-origin: 61.8625px 301.018px;" id="elov7p3bdcwyc" class="animable"></path><path d="M57.56,301.78l-.84,3.78a27,27,0,0,0-.7,3.67,0,0,0,0,0,.08,0,27.19,27.19,0,0,0,.85-3.7c.24-1.24.49-2.49.73-3.73C57.69,301.73,57.57,301.7,57.56,301.78Z" style="fill: rgb(38, 50, 56); transform-origin: 56.8503px 305.481px;" id="el7f8cfizvitj" class="animable"></path><path d="M47.94,305c-1.26.64-2.49,1.37-3.81,1.9-.09,0,0,.15,0,.11A38.8,38.8,0,0,0,48,305S48,305,47.94,305Z" style="fill: rgb(38, 50, 56); transform-origin: 46.045px 306.008px;" id="elgwm88am3u5v" class="animable"></path><path d="M72.3,279.61s-12.15.77-17.8-7.24-4.38-19.45-4.38-19.45,12.76,1.55,17.83,7.3S72.3,279.61,72.3,279.61Z" style="fill: #16A34A; transform-origin: 61.1665px 266.275px;" id="elhyj7anzsxdu" class="animable"></path><path d="M78,291.6c-.42-1.31-.94-2.59-1.43-3.86s-1-2.44-1.51-3.64a76.37,76.37,0,0,0-3.64-7.16c-.86-1.48-1.78-2.91-2.73-4.32,0-.22-.06-.43-.09-.65-.06-.38-.11-.75-.17-1.13-.12-.77-.26-1.54-.38-2.3-.28-1.68-.63-3.35-.9-5a.06.06,0,1,0-.12,0c.24,1.65.41,3.32.64,5,.11.82.22,1.63.35,2.45,0,.29.09.58.13.88a85.16,85.16,0,0,0-6-7.8l-.88-1c0-.09-.08-.18-.12-.28l-.26-.69c-.18-.49-.35-1-.53-1.45-.34-.95-.64-1.91-.9-2.89,0-.08-.14,0-.12,0,.24,1,.5,2,.79,3,.15.48.3.95.47,1.41l.09.24c-1.56-1.69-3.18-3.33-4.81-4.94-.06-.06-.15,0-.09.09a87.29,87.29,0,0,1,8.61,10.55,7.43,7.43,0,0,0-.9-.23c-.94-.18-1.88-.31-2.82-.43-2-.26-4-.51-5.93-.82-.08,0-.11.11,0,.13,1.88.37,3.75.79,5.62,1.22.88.2,1.77.38,2.65.55a17.43,17.43,0,0,1,2.14.61l.59.84q1.33,1.95,2.58,4l-1.24-.25c-.93-.18-1.88-.35-2.82-.5-1.85-.31-3.71-.63-5.54-1.05-.08,0-.11.11,0,.12,1.86.44,3.7.95,5.54,1.44.89.24,1.79.46,2.69.65l1.35.29a3.06,3.06,0,0,0,.55.1c1.77,2.88,3.44,5.82,5,8.83.68,1.32,1.33,2.66,2,4s1.21,2.79,1.81,4.19C77.66,292,78.1,291.9,78,291.6Z" style="fill: rgb(38, 50, 56); transform-origin: 66.3465px 274.675px;" id="el3qjea5dob4r" class="animable"></path><path d="M65.57,263.67c-.24-1.16-.48-2.31-.74-3.46,0-.08-.13,0-.12,0q.35,1.71.66,3.42a32.68,32.68,0,0,0,.69,3.41s0,0,0,0A26.23,26.23,0,0,0,65.57,263.67Z" style="fill: rgb(38, 50, 56); transform-origin: 65.3847px 263.607px;" id="elei9nm6719vb" class="animable"></path><path d="M58.48,263.34c-.56-.28-1.16-.51-1.75-.74l-.92-.36-.47-.19a2.31,2.31,0,0,1-.51-.22c-.09-.07-.15.09-.06.1a2,2,0,0,1,.52.22l.46.2.89.4a16.25,16.25,0,0,0,1.79.71C58.5,263.48,58.55,263.37,58.48,263.34Z" style="fill: rgb(38, 50, 56); transform-origin: 56.6196px 262.637px;" id="el2r41rf0983d" class="animable"></path><path d="M84.74,270.06s7.35-13.74,18.54-15.87,18,9.39,18,9.39-8.16,10.42-18.43,12.23S84.74,270.06,84.74,270.06Z" style="fill: #16A34A; transform-origin: 103.01px 265.009px;" id="elrmbkkdj8yg" class="animable"></path><path d="M110.77,260.35a30.33,30.33,0,0,0-8.77.1l.5-.26,2.48-1.28a57.9,57.9,0,0,1,5.25-2.57c.09,0,0-.15,0-.11-1.75.81-3.56,1.5-5.32,2.3-.88.41-1.74.83-2.59,1.28-.56.29-1.17.57-1.71.92a30.93,30.93,0,0,0-7.11,2.36l1.4-1.52c1-1.14,2.07-2.34,3.21-3.38.06-.06,0-.14-.09-.09-1.17,1.07-2.41,2-3.54,3.15-.55.54-1.08,1.1-1.59,1.67-.26.28-.51.58-.76.88a29.53,29.53,0,0,0-15,20.25c0,.08.1.12.12,0a33.87,33.87,0,0,1,8.23-13.91,32.3,32.3,0,0,1,15-8.67,32.8,32.8,0,0,1,10.35-.94C110.9,260.58,110.91,260.37,110.77,260.35Z" style="fill: rgb(38, 50, 56); transform-origin: 94.005px 270.174px;" id="eltuzcj8mbmo" class="animable"></path><g id="elp36wqxknpyb"><path d="M121.31,263.58s-8.16,10.42-18.43,12.24c-7.83,1.38-14.27-2.7-16.89-4.71l-.56-.93s5.29-4.46,15.31-7S121.31,263.58,121.31,263.58Z" style="opacity: 0.1; transform-origin: 103.37px 269.123px;" class="animable" id="elux9mb3r952c"></path></g><path d="M104.27,255.45c-.84.52-1.69,1-2.48,1.64a16.21,16.21,0,0,0-2.16,2c-.06.06,0,.14.1.09.74-.65,1.49-1.29,2.26-1.9a24.16,24.16,0,0,1,2.35-1.7C104.41,255.52,104.34,255.41,104.27,255.45Z" style="fill: rgb(38, 50, 56); transform-origin: 101.988px 257.319px;" id="el60vh2kim8sw" class="animable"></path><path d="M110.41,257.78l-1.25.49-1.24.52c-.09,0,0,.18,0,.14l1.25-.5,1.24-.53C110.52,257.87,110.49,257.75,110.41,257.78Z" style="fill: rgb(38, 50, 56); transform-origin: 109.181px 258.356px;" id="elzr1mfgnvdv" class="animable"></path><path d="M83.27,287.34s2,13.62,12.21,18.39,22.73,0,22.73,0S113.3,276.25,83.27,287.34Z" style="fill: #16A34A; transform-origin: 100.74px 296.348px;" id="elvqz8vgj4tj8" class="animable"></path><path d="M111.15,296.87c-.94-.11-1.88-.27-2.82-.44l-1.37-.26-.72-.15-.83-.76a41.26,41.26,0,0,0-6.27-4.55,36.84,36.84,0,0,0-3.75-1.93h.19l3.37.15c2.25.1,4.5.15,6.75.3.08,0,.07-.12,0-.13-2.25-.15-4.5-.4-6.75-.59l-3.27-.29L94,288.08l-.43-.05c-.59-.21-1.18-.42-1.77-.61A16,16,0,0,0,83.1,287c-2.58.66-5.15,2.35-5.82,5.06,0,.1.13.16.17.07,1-2.27,3.48-3.42,5.75-3.89a13.64,13.64,0,0,1,4.64-.09,10.72,10.72,0,0,0,.52,2.06c.28,1,.56,1.92.85,2.87.58,1.92,1.22,3.81,1.79,5.73,0,.08.14,0,.12,0-.48-1.91-.88-3.84-1.34-5.75-.22-.94-.46-1.88-.69-2.82a17,17,0,0,0-.52-1.94,23.92,23.92,0,0,1,2.66.63,39.75,39.75,0,0,1,4.64,1.7c.15,1,.37,1.93.59,2.89.28,1.2.59,2.4,1,3.57a.06.06,0,0,0,.12,0c0-.08,0-.15,0-.23h0c-.23-1.11-.47-2.22-.71-3.34-.19-.89-.36-1.8-.56-2.69,1.27.57,2.53,1.2,3.74,1.89,0,.28.09.56.13.81.07.47.16.94.24,1.4.2,1.05.41,2.1.66,3.14a48.5,48.5,0,0,0,1.76,5.92.06.06,0,0,0,0,.08l.06.07c0,.05.12,0,.1-.06-.47-2-1-4-1.46-6-.22-1-.44-2-.64-3-.11-.51-.2-1-.3-1.52,0-.15,0-.3-.07-.46a40.68,40.68,0,0,1,4,2.66,43.1,43.1,0,0,1,6.11,5.58c.07.08.22,0,.15-.13-.78-1-1.56-2-2.44-3-.52-.55-1.05-1.08-1.6-1.6l.17,0c.48.08,1,.15,1.45.21.94.13,1.89.22,2.84.33C111.2,297,111.23,296.88,111.15,296.87Z" style="fill: rgb(38, 50, 56); transform-origin: 94.245px 295.374px;" id="elq2kiv4p54u" class="animable"></path><path d="M104,301.49h0c0-.12,0-.24,0-.36s-.11-.29-.13-.44h0c-.21-.91-.39-1.82-.56-2.75,0-.06-.11,0-.11,0a11.41,11.41,0,0,0,.78,3.56s.08,0,.08,0Z" style="fill: rgb(38, 50, 56); transform-origin: 103.63px 299.707px;" id="el9a0jgiwtg4k" class="animable"></path><path d="M95.38,301.27a.06.06,0,0,0-.06-.06c-.29-1.2-.57-2.41-.81-3.63-.14-.64-.27-1.27-.39-1.91-.07-.35-.13-.69-.19-1a2.84,2.84,0,0,0-.22-.88.07.07,0,0,0-.12,0,6,6,0,0,0,.26,1.83c.12.67.25,1.33.4,2,.3,1.35.63,2.68,1,4,0,.07.15.06.14,0Z" style="fill: rgb(38, 50, 56); transform-origin: 94.49px 297.712px;" id="el70akqpy5r35" class="animable"></path><path d="M110.22,292.94c-1.87-.25-3.74-.52-5.62-.75-.07,0-.11.11,0,.12,1.87.28,3.75.51,5.62.76C110.27,293.08,110.3,293,110.22,292.94Z" style="fill: rgb(38, 50, 56); transform-origin: 107.401px 292.63px;" id="elrdpwldmuts" class="animable"></path><path d="M78,255.39s-6.27-27.51,23.28-38.64C101.3,216.75,109.49,253,78,255.39Z" style="fill: #16A34A; transform-origin: 89.8483px 236.07px;" id="elsxekwevrynj" class="animable"></path><path d="M84.4,239.79l.32-.19,1.67-.94,3.42-1.91c2.26-1.27,4.49-2.58,6.76-3.81.07,0,0-.15-.07-.11-2.27,1.24-4.59,2.39-6.88,3.6l-3.39,1.79-1.38.74c1-1.87,2-3.71,3.2-5.47,1.54-2.36,3.23-4.6,5-6.8a.1.1,0,0,0-.15-.14,47,47,0,0,0-6.83,8.38,2.81,2.81,0,0,1,0-.29c0-.68,0-1.36.06-2,0-1.34,0-2.69,0-4,0-.08-.12-.07-.12,0-.06,1.32-.22,2.63-.29,4,0,.65-.07,1.31-.09,2,0,.36,0,.77,0,1.16-.61,1-1.19,2-1.75,2.94a54.11,54.11,0,0,0-2.64,5.54c0-.68-.07-1.37-.11-2-.09-1.51-.27-3-.33-4.51a.07.07,0,0,0-.13,0c0,1.51,0,3,0,4.52,0,.75,0,1.5.09,2.26q0,.4.06.84a49.46,49.46,0,0,0-2.24,7.55,83.25,83.25,0,0,0-1.1,8.31,0,0,0,0,0,0,0,45.87,45.87,0,0,1,1.57-7.41c.37-1.29.75-2.59,1.17-3.87,1.23-.58,2.41-1.3,3.59-2l3.71-2c2.47-1.35,4.93-2.72,7.47-3.92.08,0,0-.14-.06-.11-2.58,1.17-5.18,2.28-7.71,3.55-1.25.63-2.49,1.31-3.72,2-1,.58-2.08,1.16-3.06,1.82.28-.85.58-1.71.91-2.55A73.61,73.61,0,0,1,84.4,239.79Z" style="fill: rgb(38, 50, 56); transform-origin: 87.0395px 243.884px;" id="elfqhfpzo058r" class="animable"></path><path d="M81.91,233.5c0-.08-.13-.08-.13,0,.11,1.57.16,3.14.33,4.71a.07.07,0,0,0,.14,0C82.19,236.63,82,235.07,81.91,233.5Z" style="fill: rgb(38, 50, 56); transform-origin: 82.015px 235.86px;" id="elx4gpx081lgs" class="animable"></path><path d="M96.08,238.75c-1.86.75-3.72,1.45-5.56,2.23,0,0,0,.1,0,.08,1.87-.7,3.71-1.46,5.57-2.19C96.19,238.84,96.15,238.72,96.08,238.75Z" style="fill: rgb(38, 50, 56); transform-origin: 93.335px 239.904px;" id="elc4n67ve3sxe" class="animable"></path><path d="M98.88,226.07a48.2,48.2,0,0,0-5.25,2.82c-.09.05,0,.18.08.13,1.72-1,3.46-2,5.24-2.84C99,226.14,99,226,98.88,226.07Z" style="fill: rgb(38, 50, 56); transform-origin: 96.287px 227.541px;" id="eluleemjlv4ba" class="animable"></path><rect x="55.82" y="314.86" width="42.62" height="44.92" style="fill: rgb(55, 71, 79); transform-origin: 77.13px 337.32px;" id="elvkky9ef37nq" class="animable"></rect><rect x="52.89" y="330.76" width="2.18" height="76.94" style="fill: rgb(38, 50, 56); transform-origin: 53.98px 369.23px;" id="elt7c5k9bvjpn" class="animable"></rect><rect x="98.96" y="330.76" width="2.18" height="76.94" style="fill: rgb(38, 50, 56); transform-origin: 100.05px 369.23px;" id="elllpd4vr9bvi" class="animable"></rect><rect x="77.08" y="330.76" width="2.18" height="76.94" style="fill: rgb(38, 50, 56); transform-origin: 78.17px 369.23px;" id="elh7bwq7mkth5" class="animable"></rect><rect x="53.98" y="356.9" width="46.07" height="6.22" style="fill: rgb(38, 50, 56); transform-origin: 77.015px 360.01px;" id="el9s5yi0d6zx8" class="animable"></rect></g><g id="freepik--Cloud--inject-118" class="animable" style="transform-origin: 249.96px 325.128px;"><path d="M83.13,376.09a45,45,0,0,0,41.62,44.84v.12H379.43a52.86,52.86,0,0,0,4.94-105.48,89,89,0,0,0-172.58-27.84,52.14,52.14,0,0,0-23.63-5.59,52.85,52.85,0,0,0-52.76,49.58,43.88,43.88,0,0,0-7.31-.6A45,45,0,0,0,83.13,376.09Z" style="fill: #16A34A; transform-origin: 257.665px 325.128px;" id="elwmoatogldp" class="animable"></path><g id="elxypgxrz9hr"><g style="opacity: 0.1; transform-origin: 257.665px 325.128px;" class="animable" id="el8yuf3ujtwy3"><path d="M83.13,376.09a45,45,0,0,0,41.62,44.84v.12H379.43a52.86,52.86,0,0,0,4.94-105.48,89,89,0,0,0-172.58-27.84,52.14,52.14,0,0,0-23.63-5.59,52.85,52.85,0,0,0-52.76,49.58,43.88,43.88,0,0,0-7.31-.6A45,45,0,0,0,83.13,376.09Z" id="elqwl3jfzu6ig" class="animable" style="transform-origin: 257.665px 325.128px;"></path></g></g><path d="M67.72,376.09a45,45,0,0,0,41.62,44.84v.12H364A52.86,52.86,0,0,0,369,315.57a89,89,0,0,0-172.58-27.84,52.08,52.08,0,0,0-23.63-5.59A52.83,52.83,0,0,0,120,331.72a44,44,0,0,0-7.31-.6A45,45,0,0,0,67.72,376.09Z" style="fill: #16A34A; transform-origin: 242.274px 325.129px;" id="elwap5vtsgfrj" class="animable"></path><path d="M214.64,325.44l-8.23-6.34a44.75,44.75,0,0,1,79,17.24l-10.12,2.35a34.36,34.36,0,0,0-60.7-13.25Z" style="fill: rgb(255, 255, 255); transform-origin: 245.91px 320.201px;" id="eldtp8jqa0iqm" class="animable"></path><polygon points="264.99 333.3 279.55 358.38 294 333.23 264.99 333.3" style="fill: rgb(255, 255, 255); transform-origin: 279.495px 345.805px;" id="el1yzqh9oqodd" class="animable"></polygon><g id="el0rmyvqfw9d5c"><g style="opacity: 0.2; transform-origin: 250.205px 330.046px;" class="animable" id="el1032mcjocrj"><path d="M214.64,325.44l-8.23-6.34a44.75,44.75,0,0,1,79,17.24l-10.12,2.35a34.36,34.36,0,0,0-60.7-13.25Z" style="fill: rgb(255, 255, 255); transform-origin: 245.91px 320.201px;" id="elinjrc1exa7a" class="animable"></path><polygon points="264.99 333.3 279.55 358.38 294 333.23 264.99 333.3" style="fill: rgb(255, 255, 255); transform-origin: 279.495px 345.805px;" id="elru0iixs0ujn" class="animable"></polygon></g></g><path d="M229.19,386.62A45,45,0,0,1,199.13,354l10.12-2.34a34.37,34.37,0,0,0,62,11.5l8.62,5.8A45,45,0,0,1,229.19,386.62Z" style="fill: rgb(255, 255, 255); transform-origin: 239.5px 370.169px;" id="elzbj6kxcplz" class="animable"></path><polygon points="219.6 357.09 205.04 332 190.6 357.15 219.6 357.09" style="fill: rgb(255, 255, 255); transform-origin: 205.1px 344.575px;" id="eld1iikuv1pe" class="animable"></polygon></g><g id="freepik--Files--inject-118" class="animable" style="transform-origin: 254.93px 160.85px;"><polygon points="191.48 164.78 140.73 190.28 108 125.14 145.68 106.2 158.75 99.64 164.98 112.05 191.48 164.78" style="fill: rgb(255, 255, 255); transform-origin: 149.74px 144.96px;" id="elm0z9rmevuib" class="animable"></polygon><path d="M191.48,164.78,140.8,190.42l-.13.07-.07-.14-32.82-65.1-.12-.22.23-.11,50.78-25.44.15-.08.08.16Zm0,0L158.59,99.72l.23.08-50.71,25.56.11-.33,32.65,65.18-.21-.07Z" style="fill: rgb(38, 50, 56); transform-origin: 149.57px 144.945px;" id="elykgjwjx7vj" class="animable"></path><g id="elx389k0f54wa"><rect x="116.4" y="123.09" width="46.27" height="1.87" style="fill: rgb(219, 219, 219); transform-origin: 139.535px 124.025px; transform: rotate(153.32deg);" class="animable" id="el01ut3u61rng2"></rect></g><g id="elgt1q3is19sq"><rect x="118.52" y="127.32" width="46.27" height="1.87" style="fill: rgb(219, 219, 219); transform-origin: 141.655px 128.255px; transform: rotate(153.32deg);" class="animable" id="elawk3o7bfe0t"></rect></g><g id="el0dg96pcdslg"><rect x="120.64" y="131.54" width="46.27" height="1.87" style="fill: rgb(219, 219, 219); transform-origin: 143.775px 132.475px; transform: rotate(153.32deg);" class="animable" id="elfehk4vxfmdq"></rect></g><g id="ellznf5rvuvu"><rect x="122.76" y="135.76" width="46.27" height="1.87" style="fill: rgb(219, 219, 219); transform-origin: 145.895px 136.695px; transform: rotate(153.32deg);" class="animable" id="el035iu20uvv6e"></rect></g><g id="ela37talreoml"><rect x="124.89" y="139.98" width="46.27" height="1.87" style="fill: rgb(219, 219, 219); transform-origin: 148.025px 140.915px; transform: rotate(153.32deg);" class="animable" id="elbgeb262ahe5"></rect></g><g id="elfvrrphtlbug"><rect x="127.01" y="144.21" width="46.27" height="1.87" style="fill: rgb(219, 219, 219); transform-origin: 150.145px 145.145px; transform: rotate(153.32deg);" class="animable" id="el0p7xj53qocbh"></rect></g><g id="elganez6jsbow"><rect x="129.13" y="148.43" width="46.27" height="1.87" style="fill: rgb(219, 219, 219); transform-origin: 152.265px 149.365px; transform: rotate(153.32deg);" class="animable" id="elug2q9wvha5a"></rect></g><g id="el6vywi61d9rp"><rect x="131.25" y="152.65" width="46.27" height="1.87" style="fill: rgb(219, 219, 219); transform-origin: 154.385px 153.585px; transform: rotate(153.32deg);" class="animable" id="elz7r5cb5oon"></rect></g><g id="el7h2tetjtixa"><rect x="133.37" y="156.87" width="46.27" height="1.87" style="fill: rgb(219, 219, 219); transform-origin: 156.505px 157.805px; transform: rotate(153.32deg);" class="animable" id="elhx5mpsoqvc"></rect></g><g id="elf36lo86l0mf"><rect x="135.49" y="161.09" width="46.27" height="1.87" style="fill: rgb(219, 219, 219); transform-origin: 158.625px 162.025px; transform: rotate(153.32deg);" class="animable" id="elxsidarujoon"></rect></g><g id="elnacn8lc8yp"><rect x="137.62" y="165.32" width="46.27" height="1.87" style="fill: rgb(219, 219, 219); transform-origin: 160.755px 166.255px; transform: rotate(153.32deg);" class="animable" id="elzv2ma9upch"></rect></g><g id="el3mxz67anq3u"><rect x="139.74" y="169.54" width="46.27" height="1.87" style="fill: rgb(219, 219, 219); transform-origin: 162.875px 170.475px; transform: rotate(153.32deg);" class="animable" id="elfaks2lgrg9"></rect></g><g id="elgzmjs9nbzfw"><rect x="156.35" y="120.37" width="63.16" height="63.16" style="fill: rgb(69, 90, 100); transform-origin: 187.93px 151.95px; transform: rotate(89.96deg);" class="animable" id="el5rpw6avhzxy"></rect></g><path d="M181.78,170.17a5.94,5.94,0,1,1-5.82-6A5.95,5.95,0,0,1,181.78,170.17Z" style="fill: rgb(255, 255, 255); transform-origin: 175.84px 170.109px;" id="elb5n1q3rn89a" class="animable"></path><g id="elpzml584imm"><rect x="177.54" y="140.22" width="4.53" height="29.84" style="fill: rgb(255, 255, 255); transform-origin: 179.805px 155.14px; transform: rotate(1.14deg);" class="animable" id="elqwosyf0g2k"></rect></g><path d="M201.16,161.92a5.94,5.94,0,1,1-5.82-6A5.95,5.95,0,0,1,201.16,161.92Z" style="fill: rgb(255, 255, 255); transform-origin: 195.22px 161.859px;" id="elrq0oo7cd76j" class="animable"></path><g id="eljp8ip7nnod"><rect x="196.92" y="131.97" width="4.53" height="29.84" style="fill: rgb(255, 255, 255); transform-origin: 199.185px 146.89px; transform: rotate(1.13deg);" class="animable" id="elbyjdhdau9nk"></rect></g><polygon points="201.75 132.07 177.76 144.16 177.84 140.18 201.84 128.09 201.75 132.07" style="fill: rgb(255, 255, 255); transform-origin: 189.8px 136.125px;" id="el594449fsvne" class="animable"></polygon><polygon points="201.61 139.59 177.61 151.69 177.69 147.69 201.69 135.6 201.61 139.59" style="fill: rgb(255, 255, 255); transform-origin: 189.65px 143.645px;" id="el007ku8mctt106" class="animable"></polygon><polygon points="270.32 77.56 269.33 77.48 269.4 76.48 270.4 76.56 270.32 77.56" style="fill: rgb(38, 50, 56); transform-origin: 269.865px 77.02px;" id="el4pf7nibnxzn" class="animable"></polygon><path d="M211.41,97.12l-.69-.72c.45-.43.94-.88,1.47-1.36l.66.75C212.34,96.25,211.86,96.7,211.41,97.12Zm2.93-2.62-.65-.77c.49-.41,1-.83,1.55-1.26l.62.78C215.33,93.67,214.82,94.09,214.34,94.5Zm3.08-2.45-.6-.8c.51-.39,1.05-.78,1.61-1.18l.58.82C218.46,91.28,217.93,91.66,217.42,92.05Zm3.21-2.28-.56-.83q.81-.54,1.68-1.08l.53.85C221.71,89.06,221.16,89.42,220.63,89.77ZM224,87.68l-.51-.86,1.73-1,.49.88C225.08,87,224.51,87.36,224,87.68Zm3.44-1.91-.46-.88c.58-.31,1.17-.6,1.78-.9l.44.9Zm3.54-1.72-.42-.91c.6-.27,1.21-.54,1.83-.8l.39.93C232.13,83.52,231.53,83.79,230.94,84.05Zm3.62-1.53-.36-.93c.61-.24,1.23-.47,1.86-.7l.34.94Zm3.7-1.33-.31-1c.62-.21,1.25-.41,1.9-.6l.29,1C239.5,80.79,238.88,81,238.26,81.19ZM242,80.05l-.27-1c.64-.18,1.28-.34,1.93-.5l.24,1C243.29,79.72,242.65,79.88,242,80.05Zm3.82-.94-.22-1,2-.4.19,1Q246.8,78.9,245.85,79.11Zm3.86-.74-.16-1c.64-.11,1.3-.21,2-.3l.14,1C251,78.16,250.35,78.26,249.71,78.37Zm3.9-.55-.12-1,2-.2.09,1C254.9,77.68,254.25,77.74,253.61,77.82Zm3.91-.36-.06-1,2-.11,0,1Zm9.84-.09c-.66,0-1.32-.06-2-.07l0-1,2,.07Zm-5.9-.08,0-1,1.77,0h.22v1h-.22Z" style="fill: rgb(38, 50, 56); transform-origin: 239.025px 86.705px;" id="el6aj4qkoiw5p" class="animable"></path><path d="M209.33,99.22l-.73-.68.69-.73.72.7Z" style="fill: rgb(38, 50, 56); transform-origin: 209.305px 98.515px;" id="el0uvd4ugcmtk" class="animable"></path><polygon points="210.87 92.51 211.78 92.91 209.14 98.9 215.01 96.02 215.46 96.91 207.11 101.01 210.87 92.51" style="fill: rgb(38, 50, 56); transform-origin: 211.285px 96.76px;" id="eld6ercnnoili" class="animable"></polygon><path d="M401.19,163.45s-.07-.34-.22-.94l1-.25c.16.65.23,1,.23,1Z" style="fill: rgb(38, 50, 56); transform-origin: 401.585px 162.855px;" id="eltti42yl5ouj" class="animable"></path><path d="M400.41,160.59c-.17-.57-.39-1.2-.64-1.91l.94-.34q.39,1.08.66,1.95Zm-1.36-3.79c-.24-.58-.5-1.2-.78-1.85l.91-.4c.29.66.56,1.28.8,1.88Zm-1.63-3.68q-.42-.87-.9-1.8l.89-.46c.33.63.63,1.24.92,1.83Zm-1.85-3.58c-.31-.57-.65-1.15-1-1.74l.86-.51c.36.6.69,1.19,1,1.77Zm-2.05-3.46c-.35-.56-.72-1.12-1.1-1.69l.83-.56q.58.87,1.11,1.71Zm-2.25-3.35c-.38-.54-.77-1.08-1.18-1.63l.8-.6,1.2,1.65Zm-2.41-3.23-1.27-1.56.77-.64c.44.53.86,1.06,1.28,1.58Zm-2.58-3.09q-.66-.75-1.35-1.5l.74-.68c.46.51.92,1,1.36,1.52Zm-2.74-3c-.46-.48-.93-1-1.42-1.43l.71-.72c.49.49,1,1,1.43,1.45Zm-2.87-2.83c-.48-.46-1-.91-1.48-1.37l.67-.74,1.5,1.38Zm-3-2.7c-.5-.43-1-.86-1.55-1.29l.64-.77c.53.43,1.05.87,1.56,1.3Zm-3.12-2.55c-.52-.41-1.06-.82-1.6-1.23l.6-.8c.55.41,1.08.83,1.62,1.24Zm-3.23-2.42c-.54-.39-1.09-.77-1.65-1.16l.56-.82,1.67,1.17Z" style="fill: rgb(38, 50, 56); transform-origin: 385.52px 140.76px;" id="el0q8hnqqp74g" class="animable"></path><path d="M368,120.66l-.84-.55.54-.84.85.55Z" style="fill: rgb(38, 50, 56); transform-origin: 367.855px 119.965px;" id="eld550b6gmmlc" class="animable"></path><polygon points="374.06 120.32 373.83 121.3 367.46 119.8 371.38 125.05 370.58 125.64 365.01 118.2 374.06 120.32" style="fill: rgb(38, 50, 56); transform-origin: 369.535px 121.92px;" id="ellx0e9t7nn7m" class="animable"></polygon><polygon points="145.48 204.35 144.48 204.28 144.56 203.28 145.55 203.36 145.48 204.35" style="fill: rgb(38, 50, 56); transform-origin: 145.015px 203.815px;" id="elxfuebscekli" class="animable"></polygon><path d="M164.4,263c-.43-.45-.89-.94-1.36-1.47l.75-.67c.46.52.91,1,1.33,1.45Zm-2.67-3c-.41-.49-.83-1-1.26-1.55l.78-.62c.42.53.84,1,1.24,1.52Zm-2.48-3.13c-.39-.51-.79-1.05-1.18-1.61l.82-.58c.39.55.77,1.08,1.15,1.59Zm-2.31-3.25q-.54-.81-1.08-1.68l.84-.53c.36.57.72,1.12,1.07,1.65Zm-2.12-3.38c-.33-.56-.66-1.14-1-1.73l.87-.49c.33.59.65,1.16,1,1.71Zm-1.93-3.49c-.31-.58-.61-1.17-.9-1.78l.9-.44c.29.6.58,1.19.88,1.76Zm-1.75-3.58c-.27-.6-.54-1.21-.8-1.83l.92-.39c.26.61.52,1.21.79,1.8Zm-1.55-3.68c-.24-.61-.47-1.23-.7-1.86l.94-.34.69,1.84Zm-1.35-3.75c-.21-.62-.41-1.25-.6-1.9l1-.29c.2.64.39,1.26.6,1.88Zm-1.16-3.81c-.17-.64-.34-1.28-.5-1.93l1-.24c.16.64.33,1.28.5,1.9Zm-1-3.87c-.14-.65-.27-1.3-.4-2l1-.19c.13.65.26,1.29.4,1.92Zm-.75-3.92c-.11-.65-.21-1.3-.3-2l1-.14c.09.65.19,1.3.3,1.94Zm-.56-3.94c-.07-.65-.14-1.32-.2-2l1-.09q.09,1,.21,1.95Zm-.36-4c0-.65-.08-1.32-.11-2l1,0c0,.66.06,1.32.11,2Zm-.17-4c0-.58,0-1.17,0-1.77v-.22h1v.22c0,.59,0,1.17,0,1.75Zm1-4-1,0c0-.66,0-1.32.07-2l1,0C145.34,207,145.31,207.63,145.3,208.29Z" style="fill: rgb(38, 50, 56); transform-origin: 154.68px 234.6px;" id="eldmaeabs0do" class="animable"></path><path d="M166.54,265.08l-.73-.7.7-.71.71.68Z" style="fill: rgb(38, 50, 56); transform-origin: 166.515px 264.375px;" id="el3h5c8zr8pj9" class="animable"></path><polygon points="160.5 262.81 160.91 261.89 166.9 264.54 164.01 258.66 164.91 258.22 169.01 266.57 160.5 262.81" style="fill: rgb(38, 50, 56); transform-origin: 164.755px 262.395px;" id="elmx0j499rrp" class="animable"></polygon><rect x="278.08" y="87.03" width="77.7" height="50.24" style="fill: #16A34A; transform-origin: 316.93px 112.15px;" id="elrppzp4oqkdg" class="animable"></rect><polygon points="302.57 81.83 278.08 81.83 278.08 87.03 303.97 87.03 302.57 81.83" style="fill: #16A34A; transform-origin: 291.025px 84.43px;" id="elzwrfsbbzly" class="animable"></polygon><g id="elw53jc5d5zq"><g style="opacity: 0.1; transform-origin: 316.93px 109.55px;" class="animable" id="ele1e721h1gsw"><rect x="278.08" y="87.03" width="77.7" height="50.24" id="elulgi6nqgb3d" class="animable" style="transform-origin: 316.93px 112.15px;"></rect><polygon points="302.57 81.83 278.08 81.83 278.08 87.03 303.97 87.03 302.57 81.83" id="elk856msiqgsp" class="animable" style="transform-origin: 291.025px 84.43px;"></polygon></g></g><polygon points="339.24 120.03 288.7 120 288.73 55.13 326.26 55.15 339.26 67.52 339.24 120.03" style="fill: #16A34A; transform-origin: 313.98px 87.58px;" id="elga31g69gqyu" class="animable"></polygon><g id="elwl58ub8vn0p"><polygon points="339.24 120.03 288.7 120 288.73 55.13 326.26 55.15 339.26 67.52 339.24 120.03" style="fill: rgb(255, 255, 255); opacity: 0.6; transform-origin: 313.98px 87.58px;" class="animable" id="el1w5h2e2cz4o"></polygon></g><polygon points="326.26 55.15 339.26 67.52 326.25 67.51 326.26 55.15" style="fill: #16A34A; transform-origin: 332.755px 61.335px;" id="el8y3ey6jpxdr" class="animable"></polygon><g id="elkbppmgzu4od"><polygon points="326.26 55.15 339.26 67.52 326.25 67.51 326.26 55.15" style="fill: rgb(255, 255, 255); opacity: 0.4; transform-origin: 332.755px 61.335px;" class="animable" id="elq6eybkgfjqk"></polygon></g><g id="el5pk9s76r614"><rect x="293.66" y="66.02" width="28.1" height="1.67" style="fill: rgb(255, 255, 255); transform-origin: 307.71px 66.855px; transform: rotate(-179.97deg);" class="animable" id="elvl6lis8eit"></rect></g><g id="eltaj2bfa7u6"><rect x="293.65" y="70.23" width="28.1" height="1.67" style="fill: rgb(255, 255, 255); transform-origin: 307.7px 71.065px; transform: rotate(-179.97deg);" class="animable" id="elxug3662vsxj"></rect></g><g id="elo0vp31dtx1n"><rect x="293.65" y="74.43" width="28.1" height="1.67" style="fill: rgb(255, 255, 255); transform-origin: 307.7px 75.265px; transform: rotate(-179.97deg);" class="animable" id="elto2slatwvn"></rect></g><g id="elnudg9v71etb"><rect x="293.65" y="78.64" width="41.17" height="1.67" style="fill: rgb(255, 255, 255); transform-origin: 314.235px 79.475px; transform: rotate(-179.97deg);" class="animable" id="eljedkdd9kdnm"></rect></g><g id="elf5qgzy47iof"><rect x="293.65" y="82.84" width="41.17" height="1.67" style="fill: rgb(255, 255, 255); transform-origin: 314.235px 83.675px; transform: rotate(-179.97deg);" class="animable" id="el78b56lpkjrq"></rect></g><g id="el14u7njieh0h"><rect x="293.65" y="87.05" width="41.17" height="1.67" style="fill: rgb(255, 255, 255); transform-origin: 314.235px 87.885px; transform: rotate(-179.97deg);" class="animable" id="el9w3gih6alwk"></rect></g><g id="eln0hq6ixl9e"><rect x="293.64" y="91.25" width="41.17" height="1.67" style="fill: rgb(255, 255, 255); transform-origin: 314.225px 92.085px; transform: rotate(-179.97deg);" class="animable" id="elafdpyd4a78i"></rect></g><g id="el5rlrd3047wj"><rect x="293.64" y="95.46" width="41.17" height="1.67" style="fill: rgb(255, 255, 255); transform-origin: 314.225px 96.295px; transform: rotate(-179.97deg);" class="animable" id="elundretxpnxe"></rect></g><g id="elv8bbpiip3c"><rect x="293.64" y="99.66" width="41.17" height="1.67" style="fill: rgb(255, 255, 255); transform-origin: 314.225px 100.495px; transform: rotate(-179.97deg);" class="animable" id="elucxbevvvadc"></rect></g><g id="elo0dmrczoaw"><rect x="293.64" y="103.87" width="41.17" height="1.67" style="fill: rgb(255, 255, 255); transform-origin: 314.225px 104.705px; transform: rotate(-179.97deg);" class="animable" id="elo9i35eu9d3"></rect></g><g id="el174ic1fasjp"><rect x="293.64" y="108.07" width="41.17" height="1.67" style="fill: rgb(255, 255, 255); transform-origin: 314.225px 108.905px; transform: rotate(-179.97deg);" class="animable" id="el3o39k1qyf8"></rect></g><g id="elobvfi0kbjp8"><rect x="293.63" y="112.28" width="41.17" height="1.67" style="fill: rgb(255, 255, 255); transform-origin: 314.215px 113.115px; transform: rotate(-179.97deg);" class="animable" id="el4b35ml8mywe"></rect></g><polygon points="355.6 137.27 277.9 137.27 272.55 91.2 350.26 91.2 355.6 137.27" style="fill: #16A34A; transform-origin: 314.075px 114.235px;" id="elm3wi1d9y6gb" class="animable"></polygon><polygon points="296.49 86.42 272 86.42 272.55 91.2 298.45 91.2 296.49 86.42" style="fill: #16A34A; transform-origin: 285.225px 88.81px;" id="elwvbggjym8xo" class="animable"></polygon></g><g id="freepik--Character--inject-118" class="animable" style="transform-origin: 366.936px 299.759px;"><path d="M350.18,354.91,321.35,379.8c-5.54,4.73-10.31,9-12.57,11.4a.08.08,0,0,0,0,0,5.2,5.2,0,0,0-1.36,1.86s0,0,0,.07c.3,2.6,36.78,47.94,38.59,49.09s5.23-3.9,5.22-6.79S345,409,345,409l28.57-25.14Z" style="fill: rgb(255, 196, 192); transform-origin: 340.495px 398.649px;" id="elg581lg270qb" class="animable"></path><path d="M348.1,421.29c1.54,6.21,3.06,12.74,3.08,14.18,0,2.89-3.42,8-5.22,6.79s-38.29-46.49-38.58-49.09c0,0,0,0,0-.07a5.14,5.14,0,0,1,1.37-1.86s0,0,0,0c1.83-2,5.33-5.13,9.54-8.79,1-.85,2-1.72,3-2.61l28.83-24.89,23.34,28.92L345,409s1.58,6,3.15,12.31Z" style="fill: rgb(255, 196, 192); transform-origin: 340.42px 398.696px;" id="elykav48mgo8" class="animable"></path><path d="M351.18,435.47c0,2.89-3.42,8-5.22,6.79s-38.29-46.49-38.58-49.09c0,0,0,0,0-.07a5.14,5.14,0,0,1,1.37-1.86s0,0,0,0c1.83-2,5.33-5.13,9.54-8.79,6.84,12.77,25.57,47.08,29.12,46.72,1.26-.13,1.09-4.11.66-7.84C349.64,427.5,351.16,434,351.18,435.47Z" style="fill: rgb(38, 50, 56); transform-origin: 329.28px 412.446px;" id="eluyv7i51k3b" class="animable"></path><path d="M365.26,325.9C363.5,336.32,321.89,379,321.89,379L353,412.62S412,349.77,408,327c-3.41-19.81-35.79-98.86-35.79-98.86l-34.37,1.11S367,315.65,365.26,325.9Z" style="fill: rgb(38, 50, 56); transform-origin: 365.042px 320.38px;" id="elrbpeht169ie" class="animable"></path><path d="M365.26,325.9C363.5,336.32,321.89,379,321.89,379L353,412.62S412,349.77,408,327c-3.41-19.81-35.79-98.86-35.79-98.86l-34.37,1.11S367,315.65,365.26,325.9Z" style="fill: rgb(55, 71, 79); transform-origin: 365.042px 320.38px;" id="elwrdoixixax" class="animable"></path><path d="M356.09,404.29c-4.14-4.83-2.88-3.5-7.08-8.28-2.05-2.34-15.55-17.69-17.84-19.53-.05,0-.13,0-.1.08,1.58,2.49,15.34,17.6,17.44,19.9,4.28,4.7,3.11,3.3,7.44,8C356,404.5,356.17,404.38,356.09,404.29Z" style="fill: rgb(38, 50, 56); transform-origin: 343.587px 390.474px;" id="el8f0jjeyvo4" class="animable"></path><path d="M369.37,320.71c-.58-2.56-1.22-5.12-1.85-7.68q-1.93-7.83-4.06-15.61-4.21-15.42-9.07-30.66c-3.26-10.19-6.69-20.36-10.59-30.33-.48-1.23-1-2.45-1.47-3.68a.08.08,0,0,0-.15.05c3.42,10,6.93,20,10.15,30s6.21,20.11,9.06,30.24c1.43,5.09,2.77,10.2,4.09,15.32.65,2.52,1.28,5,1.9,7.56a53.28,53.28,0,0,1,1.69,7.79,12,12,0,0,1-1.79,7.13c-1.22,2.15-2.67,4.18-4.07,6.21-2.81,4.08-29.77,36.16-30.64,37-.07.07,0,.17.11.1,3.64-3.49,26.54-30,29.43-34,1.43-2,2.82-4.06,4.18-6.12a23.73,23.73,0,0,0,3.22-6.12A14.37,14.37,0,0,0,369.37,320.71Z" style="fill: rgb(38, 50, 56); transform-origin: 351.221px 303.44px;" id="el14dx00mgl8gl" class="animable"></path><path d="M366.31,228.33l-3.59,82.08c-6.86-27.83-24.83-81.16-24.83-81.16Z" style="fill: rgb(38, 50, 56); transform-origin: 352.1px 269.37px;" id="eltgxt6v2gv" class="animable"></path><path d="M360,397.3s8.59,35.89,8.59,35.91c.33,7.28.76,13.64,1.28,16.92a.09.09,0,0,0,0,.05,5.11,5.11,0,0,0,.64,2.22l0,.05c2.23,1.36,60.42.38,62.44-.33s.13-6.53-2.16-8.29-24.74-11.35-24.74-11.35l-8.95-35.85Z" style="fill: rgb(255, 196, 192); transform-origin: 396.904px 424.88px;" id="elodlm3y47t7b" class="animable"></path><path d="M433,452.11c-2,.72-60.21,1.71-62.44.34l0-.05a5.11,5.11,0,0,1-.64-2.22.07.07,0,0,1,0-.05c-.41-2.61-.77-7.19-1.07-12.62,14.88,2.4,52.19,8.06,54,5.07.7-1.15-3-3.65-6.43-5.62,6.24,2.74,13.23,5.93,14.46,6.87C433.1,445.59,435,451.41,433,452.11Z" style="fill: rgb(38, 50, 56); transform-origin: 401.347px 445.047px;" id="eluhox983cwaj" class="animable"></path><path d="M371.87,228.15a142,142,0,0,0-2.39,17.25c-.49,7.21-1.18,13.6-2.11,14.43s-6.38,4.59-8.17,5.77c0,0,18.59,50.78,23.52,67.75,7.13,24.6,24.72,98.53,24.72,98.53L367,433.18s-14.59-70.45-20.72-93.89C341,319.19,321.41,259,321.41,259a35.29,35.29,0,0,1,.48-29.25S371.88,228.13,371.87,228.15Z" style="fill: rgb(55, 71, 79); transform-origin: 362.956px 330.665px;" id="eled8829fz3gs" class="animable"></path><path d="M405.72,424.06c-6.35.17-4.53,0-10.89.28-3.1.11-23.53.91-26.41,1.53-.06,0-.06.13,0,.13,2.92.34,23.33-.81,26.44-1,6.34-.36,4.52-.33,10.86-.77C405.85,424.24,405.84,424.06,405.72,424.06Z" style="fill: rgb(38, 50, 56); transform-origin: 387.094px 425.061px;" id="elt2173r7qtm8" class="animable"></path><path d="M370.16,257.71a77.49,77.49,0,0,0-10.91,7.82c-.13.12,0,.33.16.23,3.7-2.49,7.5-4.92,11.06-7.61A.27.27,0,0,0,370.16,257.71Z" style="fill: rgb(38, 50, 56); transform-origin: 364.882px 261.729px;" id="elpwv8t9bsd8g" class="animable"></path><path d="M366.17,229.88c0-.14-.28-.12-.25,0,.93,4.78,1.42,9,1.86,13.59.2,2.11.7,13.89-3.06,13.74-.63,0-1.05-.56-1.32-1.46a14.39,14.39,0,0,1-.18-3.6c-.05-2.48-.19-5-.44-7.41a67.12,67.12,0,0,0-2.7-13.54.12.12,0,0,0-.23.05,127.28,127.28,0,0,1,2.43,18.94c.11,3.07-.54,7.84,2.67,7.71s3.9-8,3.9-10.17A69.89,69.89,0,0,0,366.17,229.88Z" style="fill: rgb(38, 50, 56); transform-origin: 364.35px 243.842px;" id="el1ibmi39niun" class="animable"></path><path d="M364.87,257.53a19.51,19.51,0,0,0-.36,2.53,5.71,5.71,0,0,0,0,2c0,.12.21.1.26,0a7.12,7.12,0,0,0,.48-2.06c.14-.78.29-1.57.4-2.36A.41.41,0,0,0,364.87,257.53Z" style="fill: rgb(38, 50, 56); transform-origin: 365.036px 259.715px;" id="elzk02ocnbbia" class="animable"></path><path d="M361.33,403.2c-.13-.93-.29-1.86-.45-2.79-.31-1.79-.67-3.56-1-5.34-.67-3.57-1.4-7.14-2.15-10.7-1.5-7.09-3.19-14.16-5-21.2-1-4-2.14-7.9-3.34-11.82-.09-.27-.47-.12-.41.14.76,3.6,1.51,7.2,2.37,10.78s1.7,7.14,2.53,10.72c1.65,7.06,3.19,14.15,4.83,21.22.46,2,.89,4,1.34,6,.23,1,.47,2,.71,3s.59,1.95.79,2.95c0,.1.16.05.14-.05C361.52,405.14,361.48,404.16,361.33,403.2Z" style="fill: rgb(38, 50, 56); transform-origin: 355.333px 378.711px;" id="eliokuf121t4r" class="animable"></path><path d="M387.47,348.58c-1.56-6.66-3.59-13.22-5.63-19.75-4.1-13.15-8.85-26.08-13.59-39l-4.1-11.18c-.68-1.86-4-11.91-4.46-12.86a.08.08,0,0,0-.16.05c1,3.43,2.35,8.43,3.47,11.82s2.3,6.68,3.46,10c2.28,6.55,4.59,13.09,6.81,19.66,4.39,13,8.75,26,12.4,39.2,1,3.7,2,7.4,3,11.12s1.77,7.47,2.68,11.19c0,.1.19.07.18,0C390.61,362,389,355.27,387.47,348.58Z" style="fill: rgb(38, 50, 56); transform-origin: 375.528px 317.313px;" id="eld2ztp1v7ppv" class="animable"></path><path d="M363.47,384.49c-2.64-12.73-5.71-25.37-9.08-37.92S347.3,321.43,343.26,309s-8.49-24.71-13.22-36.88A155.42,155.42,0,0,1,324,254.59c-1.53-5.93-2.41-12.38-1.22-18.45A30.77,30.77,0,0,1,324,231.6c0-.1-.11-.18-.15-.08-4.5,11.49-.94,23.78,3.12,34.83,2.23,6,4.59,12,6.78,18.12s4.43,12.48,6.52,18.76q6.21,18.67,11.53,37.63T361.34,379c2.86,12.85,5.33,25.76,7.83,38.69.33,1.68.59,3.37.87,5.06,0,.09.16.09.15,0C368.22,410,366.11,397.19,363.47,384.49Z" style="fill: rgb(38, 50, 56); transform-origin: 345.973px 327.146px;" id="elroffj3suig" class="animable"></path><path d="M367.78,150.76c6.18,8.07,2.08,17.05,4.15,22.83,1.26,3.54,6.83,8.17,7.32,12,.79,6.36-4.68,7.42-4.24,10.88.63,4.89,6.81,5.83,6.33,13.53S371,223.93,351,222s-29.13-11.38-28.49-17.86,7.57-7.21,9-11.84c.92-3-2.64-5.91-1.66-11.51s6.77-6.27,8.55-10.82,1.71-16.56,9.88-20.95S364.74,146.78,367.78,150.76Z" style="fill: rgb(38, 50, 56); transform-origin: 351.923px 184.471px;" id="ellbegqsh6ogl" class="animable"></path><path d="M366.87,150.75a16.34,16.34,0,0,1,3.79,6.83,35.92,35.92,0,0,1,1.16,8.25,21.86,21.86,0,0,0,.54,4.91,12.19,12.19,0,0,0,1.93,3.78c1.71,2.35,3.92,4.33,5.35,6.88,1.37,2.4,2.19,5.41.89,8-.71,1.42-2,2.43-2.88,3.71s-1.45,2.8-.54,4.15c.77,1.15,2.09,1.88,3,2.89a13,13,0,0,1,2.26,3.36,9.76,9.76,0,0,1,.2,7.87c-2.43,5.82-8.84,8.06-14.55,9.12-.8.15-1.6.28-2.4.42-.12,0-.18-.16-.05-.19,5.76-1.24,12.46-2.71,15.74-8.17a9.12,9.12,0,0,0,.74-8,11.36,11.36,0,0,0-2.16-3.51c-.89-1-2-1.75-2.93-2.72a3.64,3.64,0,0,1-1-3.55,8.94,8.94,0,0,1,2.27-3.57,7.37,7.37,0,0,0,2.11-3.82,8,8,0,0,0-.74-4.22c-1.15-2.67-3.25-4.71-5.06-6.93a13.48,13.48,0,0,1-3.35-7.56c-.11-1.47-.05-3-.11-4.43a37.56,37.56,0,0,0-.34-4.1,18.78,18.78,0,0,0-2.68-7.66,11.25,11.25,0,0,0-1.33-1.66C366.73,150.78,366.82,150.69,366.87,150.75Z" style="fill: rgb(38, 50, 56); transform-origin: 374.399px 185.825px;" id="elj61vfty9bsg" class="animable"></path><path d="M322.66,199.27a7.4,7.4,0,0,1,1.95-2.55c.86-.72,1.83-1.27,2.75-1.9a5.71,5.71,0,0,0,2.15-2.29,5.47,5.47,0,0,0-.11-3.7,27.15,27.15,0,0,1-1-3.76,13,13,0,0,1,0-3.79,12.8,12.8,0,0,1,3.5-6.83c.89-.95,1.86-1.82,2.76-2.76a16.29,16.29,0,0,0,2.53-3.42c1.5-2.75,2.34-5.8,3.69-8.62a47.57,47.57,0,0,1,5-8.17c0-.06.14,0,.09.09a41.09,41.09,0,0,0-4.45,7.39c-1.18,2.48-2,5.08-3,7.62a20.09,20.09,0,0,1-1.8,3.59,20.62,20.62,0,0,1-2.38,2.9c-1.77,1.86-3.58,3.69-4.48,6.16a12.22,12.22,0,0,0-.29,7.56c.61,2.15,1.6,4.59.22,6.67-1.16,1.76-3.24,2.52-4.79,3.86a7.86,7.86,0,0,0-2.62,5.88c-.11,5.67,4.78,9.54,9.84,10.89a.13.13,0,0,1-.05.25c-4.44-1-8.87-4-10.07-8.59A9.64,9.64,0,0,1,322.66,199.27Z" style="fill: rgb(38, 50, 56); transform-origin: 333.881px 182.898px;" id="elfpvcmxodw9p" class="animable"></path><path d="M353.06,193.79c9.29,17.69,21,36.79,31.42,39.51,9.93,2.58,33.58-22.18,37.59-30.4,1.38-2.83-17.34-15.24-20-13.16-5,3.93-15.92,16.39-17.48,16.08s-14.82-12.13-26.79-22.06C350.56,177.74,346.62,181.54,353.06,193.79Z" style="fill: rgb(255, 196, 192); transform-origin: 385.976px 207.219px;" id="eloxee0t35p3b" class="animable"></path><path d="M405.46,161l-7.15,25c-.3.73.06,1.35.78,1.37l13,.41a2.1,2.1,0,0,0,1.85-1.29l7.15-25a.9.9,0,0,0-.79-1.37l-13-.41A2.12,2.12,0,0,0,405.46,161Z" style="fill: rgb(166, 166, 166); transform-origin: 409.713px 173.745px;" id="ellvwjr7lwnx" class="animable"></path><path d="M407,161l-7.16,25.05a.91.91,0,0,0,.79,1.37l13,.4a2.11,2.11,0,0,0,1.85-1.28l7.15-25c.29-.74-.06-1.35-.79-1.37l-13-.41A2.11,2.11,0,0,0,407,161Z" style="fill: rgb(219, 219, 219); transform-origin: 411.223px 173.79px;" id="elwmm0pr9hl5h" class="animable"></path><path d="M410.54,162.31a1.11,1.11,0,0,1-1.16,1.05,1.12,1.12,0,0,1-1.05-1.17,1.11,1.11,0,0,1,2.21.12Z" style="fill: rgb(69, 90, 100); transform-origin: 409.434px 162.294px;" id="el7l2n7pllt97" class="animable"></path><path d="M428.09,188.73c1.1-7.28.27-9.32,4.46-15,2.75-3.71,1.56-7.06-2.77-5-7.07,3.41-10.46,12.5-10.73,16Z" style="fill: rgb(255, 196, 192); transform-origin: 426.538px 178.416px;" id="elpqahvbxnr8" class="animable"></path><path d="M418.7,207.8s6.79-7.93,8.73-15.57c1.34-5.28,3-17.1-8.57-28.56-2.74-2.72-8.57-4.65-5.71,1.41,2,4.31,4.62,6.43,5.35,9.15,0,0-7.71-1.58-10.33,1.27a73.6,73.6,0,0,0-6.3,7.94,15.49,15.49,0,0,0,1.38,1.31s-2.19,2.9-1.73,8.4Z" style="fill: rgb(255, 196, 192); transform-origin: 414.916px 184.44px;" id="elc5166tp148a" class="animable"></path><path d="M427.91,187c-1.29-2.55-4.12-7.9-8-11.48-4.26-4-13.55-10.47-16.44-7.29-2.13,2.33,1.19,5.12,1.19,5.12s-4.4-1.88-5.86.64c-1.33,2.31,1.37,4.31,1.37,4.31s-2.86-.68-3.72,1.78c-1,3,5.15,3.91,6.7,7.81C403.54,188.74,427.91,187,427.91,187Z" style="fill: rgb(255, 196, 192); transform-origin: 412.125px 177.752px;" id="ela5ij7qsg1m" class="animable"></path><path d="M416.5,180.71a23.2,23.2,0,0,0-11.68-7.42c-.12,0-.2.05-.1.1a57,57,0,0,1,11.75,7.36S416.52,180.73,416.5,180.71Z" style="fill: rgb(38, 50, 56); transform-origin: 410.59px 177.02px;" id="elrkf0m4z0ais" class="animable"></path><path d="M412.37,184.89a26,26,0,0,0-12.11-6.7c-.11,0-.19.06-.09.1a60.51,60.51,0,0,1,12.16,6.65S412.39,184.92,412.37,184.89Z" style="fill: rgb(38, 50, 56); transform-origin: 406.249px 181.565px;" id="elz41ks3m0sfp" class="animable"></path><path d="M395.64,193l19.49,20.68s-20.59,23.08-30.26,20.67-27.95-28.59-33.81-45.2c-4.05-11.5,2.35-9.65,9.06-4s24.28,19.63,25.05,19.42S395.64,193,395.64,193Z" style="fill: #16A34A; transform-origin: 382.463px 207.61px;" id="elukx811jepw" class="animable"></path><g id="elvum4lad2wv9"><g style="opacity: 0.2; transform-origin: 382.463px 207.61px;" class="animable" id="elslc4kn1uecc"><path d="M395.64,193l19.49,20.68s-20.59,23.08-30.26,20.67-27.95-28.59-33.81-45.2c-4.05-11.5,2.35-9.65,9.06-4s24.28,19.63,25.05,19.42S395.64,193,395.64,193Z" id="elzi60ot2n66" class="animable" style="transform-origin: 382.463px 207.61px;"></path></g></g><g id="elldbvnqdwij"><path d="M351.06,189.11c5.86,16.61,24.14,42.78,33.81,45.2,4.27,1.07,10.69-2.85,16.51-7.56,0,0,0,0,0,0-9.86-10.16-36.08-34.75-48-45.82C350.14,179.87,348.48,181.78,351.06,189.11Z" style="opacity: 0.1; transform-origin: 375.587px 207.573px;" class="animable" id="ely2sho06qrna"></path></g><path d="M408.81,217.07c-2.83-2.85-14-14.93-16.18-17.71-.16-.19-.07-.34.11-.16A217.78,217.78,0,0,1,408.92,217C409,217,408.88,217.15,408.81,217.07Z" style="fill: rgb(38, 50, 56); transform-origin: 400.747px 208.106px;" id="el95g3lfymgeg" class="animable"></path><path d="M321.67,230.6l51.41-.82-4.53-15.26A16.09,16.09,0,0,0,370.43,201c-1.37-4.49-7.44-11.09-11.17-15.28-9.07-10.21-16.5-5.22-18.83-2.45C331.52,193.92,321.67,230.6,321.67,230.6Z" style="fill: rgb(235, 235, 235); transform-origin: 347.375px 205.091px;" id="elkmjzgtlrnxr" class="animable"></path><path d="M354.78,214.06a44.15,44.15,0,0,1,6.6-.32c1.1,0,2.18.13,3.27.25.55.06,1.09.1,1.64.13a7,7,0,0,0,1.71,0c.05,0,.06.06,0,.08a12.07,12.07,0,0,1-1.59.31,13.72,13.72,0,0,1-1.57,0c-1.11,0-2.22-.12-3.33-.16-2.25-.09-4.49-.18-6.73-.1A.1.1,0,0,1,354.78,214.06Z" style="fill: rgb(38, 50, 56); transform-origin: 361.376px 214.129px;" id="el1xcy5pfa03t" class="animable"></path><path d="M349.88,217.11a47.53,47.53,0,0,1,5.27-1.4c.89-.19,1.79-.31,2.69-.42l1.3-.13c.48,0,1,0,1.44-.06.05,0,.06.07,0,.07-.44.06-.88.19-1.33.28l-1.33.25-2.68.51c-1.79.32-3.57.66-5.34,1C349.81,217.28,349.79,217.14,349.88,217.11Z" style="fill: rgb(38, 50, 56); transform-origin: 355.221px 216.165px;" id="el82kenr8hh1s" class="animable"></path><path d="M339,182.89c-16.59,10-40.35,33.86-38.71,40.35,1.82,7.22,25-6.82,25.16-7.93.16-.84,11-16.26,19.05-27.43S343.08,180.42,339,182.89Z" style="fill: rgb(255, 196, 192); transform-origin: 323.927px 202.777px;" id="elsh5p3npup97" class="animable"></path><path d="M325.55,215.36c1-1.68,15.56-22,19.89-28.42s2.57-9.28-6.27-4.59-30.12,22.45-36.66,33.1c-6.3,10.25-.57,11.71,8.31,8.51C318.08,221.34,325.55,215.36,325.55,215.36Z" style="fill: #16A34A; transform-origin: 323.777px 202.749px;" id="ell5vmxtaq7ok" class="animable"></path><g id="elwbz9rlu9crf"><g style="opacity: 0.2; transform-origin: 323.777px 202.749px;" class="animable" id="el7peridpr0ey"><path d="M325.55,215.36c1-1.68,15.56-22,19.89-28.42s2.57-9.28-6.27-4.59-30.12,22.45-36.66,33.1c-6.3,10.25-.57,11.71,8.31,8.51C318.08,221.34,325.55,215.36,325.55,215.36Z" id="ell0pdoe5ex7b" class="animable" style="transform-origin: 323.777px 202.749px;"></path></g></g><path d="M325.55,215.36c1.11-1.85,2.3-3.66,3.49-5.46s2.43-3.56,3.64-5.34,2.5-3.51,3.79-5.24,2.59-3.45,4-5.13c-1.11,1.86-2.29,3.66-3.48,5.46s-2.44,3.56-3.65,5.34-2.5,3.52-3.79,5.24S326.92,213.69,325.55,215.36Z" style="fill: rgb(38, 50, 56); transform-origin: 333.01px 204.775px;" id="elfreoe9oguwp" class="animable"></path><path d="M340.57,195.87a6.52,6.52,0,0,1-1.41,1.72,6,6,0,0,1-.9.66,3.79,3.79,0,0,1-1,.45c.54-.53,1.06-1,1.6-1.49A14.59,14.59,0,0,1,340.57,195.87Z" style="fill: rgb(38, 50, 56); transform-origin: 338.915px 197.285px;" id="els3mky93ipe" class="animable"></path><path d="M300.22,222.6c1.85,4.93,9.59,7.75,28.42,16.7,2.61,1.23,16.29-14.8,13.58-16.27-3.42-1.84-17.09-8.26-18.15-8.61C315.14,211.53,299,219.27,300.22,222.6Z" style="fill: rgb(255, 196, 192); transform-origin: 321.364px 226.577px;" id="elmp1uiw5v9ug" class="animable"></path><path d="M338.48,221.11s8.08,3.42,11.76,6.52a30.89,30.89,0,0,1,8.41,12.21c1.94,5,3.12,18.61-.73,19.63-3.48.92-4-13-4-13s2.86,14.1-1.53,14.44-4.07-15.84-4.07-15.84,2.61,14.55-2,14.19c-3.46-.28-4-15-4-15s2.16,12.53-1.42,12.4c-3.95-.14-5.29-13.66-5.29-13.66-9-1.86-12.58-6.44-14.72-10C320.42,232.18,338.48,221.11,338.48,221.11Z" style="fill: rgb(255, 196, 192); transform-origin: 340.67px 241.013px;" id="elf4crgukss7q" class="animable"></path><path d="M353.26,241.53c.39,1.65.81,3.31,1.05,5s.44,3.35.53,5a28.17,28.17,0,0,1-.27,6.61,62.41,62.41,0,0,0-.72-11.6c-.25-1.67-.41-3.36-.66-5C353.19,241.5,353.25,241.5,353.26,241.53Z" style="fill: rgb(38, 50, 56); transform-origin: 354.057px 249.824px;" id="elm1tl18ry5er" class="animable"></path><path d="M347.2,242.32c.41,2.12.9,4.21,1.22,6.35s.44,4.18.61,6.33c0,.17-.08.12-.1-.05-.26-2.13-.66-4.09-.94-6.23s-.49-4.28-.84-6.39C347.14,242.29,347.19,242.29,347.2,242.32Z" style="fill: rgb(38, 50, 56); transform-origin: 348.089px 248.702px;" id="elljlxtedl5v9" class="animable"></path><path d="M341.87,242.06a48,48,0,0,1,1.13,9.86c0,.16-.11.09-.12-.08-.32-3.28-.54-5.86-1.12-9.75C341.75,242,341.86,242,341.87,242.06Z" style="fill: rgb(38, 50, 56); transform-origin: 342.38px 247.014px;" id="elbxi6vt2249q" class="animable"></path><path d="M340.23,221.56l-22.3,14.91S301.4,228,300,222.78c-.95-3.4,15.34-12,25-8.08Z" style="fill: #16A34A; transform-origin: 320.095px 225.083px;" id="el133rpv9n07rm" class="animable"></path><g id="elox40id7z2w"><path d="M340.23,221.56l-22.3,14.91S301.4,228,300,222.78c-.95-3.4,15.34-12,25-8.08Z" style="opacity: 0.2; transform-origin: 320.095px 225.083px;" class="animable" id="elqz97t47pel"></path></g><path d="M312.21,214.81a17.82,17.82,0,0,1,12.73-.12c.05,0,0,.1,0,.09-4.32-1.24-10.79-.46-12.69.11C312.18,214.9,312.17,214.83,312.21,214.81Z" style="fill: rgb(38, 50, 56); transform-origin: 318.574px 214.232px;" id="elz0nfshx5k3m" class="animable"></path><path d="M314,232c2.36-1.77,4.82-3.41,7.28-5s4.92-3.28,7.43-4.86c1.41-.88,2.82-1.78,4.27-2.62,0,0,.08,0,.05.06-2.36,1.77-4.82,3.42-7.26,5.07s-4.93,3.28-7.41,4.89c-1.41.9-2.83,1.78-4.27,2.62A.08.08,0,0,1,314,232Z" style="fill: rgb(38, 50, 56); transform-origin: 323.495px 225.846px;" id="elivi6eus5hqa" class="animable"></path><path d="M340.33,221.32a24.64,24.64,0,0,0-3.07-1.57q-1.56-.74-3.15-1.41a68.67,68.67,0,0,0-10.49-4.1s.13.26.18.27c1.95.39,15,6.65,16.15,7l-.18.2c0,.05,0,.14.07.11a3.88,3.88,0,0,0,.46-.22A.17.17,0,0,0,340.33,221.32Z" style="fill: rgb(38, 50, 56); transform-origin: 332.005px 218.033px;" id="el8m4rs4tss4v" class="animable"></path><path d="M348.68,182.33c.1.94,3.74,7.37,7.93,7.67,1.36.09,2.22-7.32,2.22-7.32l.18-.54,2.63-7.46-8.32-6.85-1.21-.92s-.58,2.09-1.28,4.7c0,.12-.07.24-.1.37a3.31,3.31,0,0,0-.12.42l-.33,1.18c-.08.31-.15.6-.22.92s-.15.63-.23.95A50.46,50.46,0,0,0,348.68,182.33Z" style="fill: rgb(255, 196, 192); transform-origin: 355.16px 178.455px;" id="elry8ky1adba" class="animable"></path><path d="M350.83,171.61A15.87,15.87,0,0,0,359,182.14l2.63-7.46-8.32-6.85-1.21-.92S351.53,169,350.83,171.61Z" style="fill: rgb(38, 50, 56); transform-origin: 356.23px 174.525px;" id="el49zza9cf4fh" class="animable"></path><path d="M373.92,161.62c3,13.56-4.79,16.89-7.71,17.53-2.66.58-11.77,2.23-16.15-11s1-18.86,7-20.51S370.93,148.06,373.92,161.62Z" style="fill: rgb(255, 196, 192); transform-origin: 361.529px 163.348px;" id="elv5mpq23ttv" class="animable"></path><path d="M371.56,160.91a7.61,7.61,0,0,1-1-.06,1.57,1.57,0,0,1-1-.24.5.5,0,0,1-.08-.6,1.24,1.24,0,0,1,1.15-.46,1.79,1.79,0,0,1,1.21.46A.53.53,0,0,1,371.56,160.91Z" style="fill: rgb(38, 50, 56); transform-origin: 370.706px 160.224px;" id="elouq8c95psbb" class="animable"></path><path d="M362.33,161.94c.31-.09.59-.22.89-.34a1.55,1.55,0,0,0,.86-.51.5.5,0,0,0-.09-.6,1.22,1.22,0,0,0-1.24-.1,1.72,1.72,0,0,0-1,.79A.53.53,0,0,0,362.33,161.94Z" style="fill: rgb(38, 50, 56); transform-origin: 362.917px 161.109px;" id="elg8q5qh8pkv" class="animable"></path><path d="M364.74,164.28s-.06.06-.06.09c.2.93.26,2-.53,2.48,0,0,0,.06,0,.05C365.17,166.58,365.07,165.13,364.74,164.28Z" style="fill: rgb(38, 50, 56); transform-origin: 364.559px 165.591px;" id="eldnqbaxn3g4w" class="animable"></path><path d="M363.74,163.45c-1.52.14-1.11,3.17.29,3S365,163.33,363.74,163.45Z" style="fill: rgb(38, 50, 56); transform-origin: 363.837px 164.952px;" id="eluo51ick5vkf" class="animable"></path><path d="M363.17,163.69c-.24.2-.46.54-.78.61s-.68-.19-1-.46c0,0-.05,0-.05,0,.07.58.37,1.15,1,1.15s.92-.56,1-1.17C363.38,163.75,363.27,163.6,363.17,163.69Z" style="fill: rgb(38, 50, 56); transform-origin: 362.344px 164.326px;" id="elmxhjnntif3g" class="animable"></path><path d="M369.89,163.14s.08,0,.08.08c.09.94.35,2,1.24,2.21,0,0,0,0,0,0C370.15,165.47,369.82,164.05,369.89,163.14Z" style="fill: rgb(38, 50, 56); transform-origin: 370.546px 164.285px;" id="el9y2d1llee56" class="animable"></path><path d="M370.61,162.06c1.49-.3,2,2.71.6,3S369.35,162.31,370.61,162.06Z" style="fill: rgb(38, 50, 56); transform-origin: 370.953px 163.559px;" id="el7kp4dfcyd65" class="animable"></path><path d="M371.27,162.15c.26.12.55.37.83.35s.53-.4.69-.75c0,0,0,0,0,0,.11.57,0,1.2-.52,1.4s-.94-.25-1.17-.8C371.11,162.28,371.16,162.1,371.27,162.15Z" style="fill: rgb(38, 50, 56); transform-origin: 371.964px 162.474px;" id="elddcv8y598hj" class="animable"></path><path d="M365.76,172.2c.25.2.5.49.84.49a2.52,2.52,0,0,0,1-.33s.07,0,.05,0a1.27,1.27,0,0,1-1.15.61,1,1,0,0,1-.82-.77A.06.06,0,0,1,365.76,172.2Z" style="fill: rgb(38, 50, 56); transform-origin: 366.667px 172.578px;" id="el370ptpcempw" class="animable"></path><path d="M369.19,168.25s.39,1.37.49,2c0,.06-.15.12-.37.16h0a3.17,3.17,0,0,1-3.21-.73c-.06-.06,0-.14.08-.11a4.81,4.81,0,0,0,3,.41c0-.19-.75-2.33-.65-2.35a6.08,6.08,0,0,1,1.55.12c-.74-2.87-1.94-5.61-2.63-8.49a.09.09,0,0,1,.16-.06,47.6,47.6,0,0,1,3.23,9C370.89,168.63,369.47,168.33,369.19,168.25Z" style="fill: rgb(38, 50, 56); transform-origin: 368.458px 164.87px;" id="el8bvk8798k1r" class="animable"></path><path d="M369.21,170.21a3.85,3.85,0,0,1-1.27,1.47,1.73,1.73,0,0,1-1,.28c-.78,0-.94-.72-.93-1.33a4.69,4.69,0,0,1,.15-1A5,5,0,0,0,369.21,170.21Z" style="fill: rgb(38, 50, 56); transform-origin: 367.61px 170.795px;" id="el8qxik4ed73" class="animable"></path><path d="M367.94,171.68a1.73,1.73,0,0,1-1,.28c-.78,0-.94-.72-.93-1.33A1.77,1.77,0,0,1,367.94,171.68Z" style="fill: rgb(255, 154, 187); transform-origin: 366.975px 171.282px;" id="eld8m2clfole" class="animable"></path><path d="M350.16,169a5.73,5.73,0,0,0,2.88-4.88,15,15,0,0,0,5.75-5.33c-.07.3-.6,2.41-.9,3.48,8.7-2.26,11-9.19,11-9.19a15.16,15.16,0,0,1,4.23,5.32s-.31-5.41-3.34-8.84a8.75,8.75,0,0,0-8.3-3,12.5,12.5,0,0,0-11.91,4.59C344.24,157.69,350.16,169,350.16,169Z" style="fill: rgb(38, 50, 56); transform-origin: 360.232px 157.692px;" id="elzt1ay0d4bas" class="animable"></path><path d="M364.49,160.3a16.45,16.45,0,0,1-4.41,2s0,0,0,0a13.85,13.85,0,0,0,6.2-4.36A13.31,13.31,0,0,0,368,155.1a8.88,8.88,0,0,0,.94-3.44.07.07,0,0,1,.14,0,10.76,10.76,0,0,1-.46,3.52,9.65,9.65,0,0,1-1.76,3.06,11.06,11.06,0,0,1-2.36,2.06" style="fill: rgb(38, 50, 56); transform-origin: 364.583px 156.945px;" id="elfsno6p6pgmd" class="animable"></path><path d="M352.58,167.53S349,163.62,347.2,165s1.27,7.26,3.67,7.82a2.35,2.35,0,0,0,2.95-1.67Z" style="fill: rgb(255, 196, 192); transform-origin: 350.24px 168.812px;" id="el9sjpvyucu2t" class="animable"></path><path d="M348.12,166.63a0,0,0,1,0,0,.06,6,6,0,0,1,3.53,3.29,1.3,1.3,0,0,0-2-.1s0,.09.05.08a1.43,1.43,0,0,1,1.64.29,6.57,6.57,0,0,1,.92,1.18c.1.13.35,0,.27-.14l0,0C352.31,169.2,350.35,166.55,348.12,166.63Z" style="fill: rgb(38, 50, 56); transform-origin: 350.333px 169.056px;" id="el33fhb3twkth" class="animable"></path></g><defs>     <filter id="active" height="200%">         <feMorphology in="SourceAlpha" result="DILATED" operator="dilate" radius="2"></feMorphology>                <feFlood flood-color="#32DFEC" flood-opacity="1" result="PINK"></feFlood>        <feComposite in="PINK" in2="DILATED" operator="in" result="OUTLINE"></feComposite>        <feMerge>            <feMergeNode in="OUTLINE"></feMergeNode>            <feMergeNode in="SourceGraphic"></feMergeNode>        </feMerge>    </filter>    <filter id="hover" height="200%">        <feMorphology in="SourceAlpha" result="DILATED" operator="dilate" radius="2"></feMorphology>                <feFlood flood-color="#ff0000" flood-opacity="0.5" result="PINK"></feFlood>        <feComposite in="PINK" in2="DILATED" operator="in" result="OUTLINE"></feComposite>        <feMerge>            <feMergeNode in="OUTLINE"></feMergeNode>            <feMergeNode in="SourceGraphic"></feMergeNode>        </feMerge>            <feColorMatrix type="matrix" values="0   0   0   0   0                0   1   0   0   0                0   0   0   0   0                0   0   0   1   0 "></feColorMatrix>    </filter></defs></svg>